<?xml version="1.0" encoding="UTF-8" standalone="no"?>
<!DOCTYPE svg PUBLIC "-//W3C//DTD SVG 20010904//EN"
              "http://www.w3.org/TR/2001/REC-SVG-20010904/DTD/svg10.dtd">

<svg xmlns="http://www.w3.org/2000/svg"
     width="4.01389in" height="3.93056in"
     viewBox="0 0 289 283">
  <path id="Selection #3"
        fill="#ffffff" stroke="black" stroke-width="1"
        d="M 14.00,283.00
           C 9.66,278.65 4.39,277.13 1.58,271.00
             0.03,267.61 -0.02,257.12 0.02,253.00
             0.02,253.00 0.02,208.00 0.02,208.00
             0.02,208.00 0.02,33.00 0.02,33.00
             0.12,20.19 -1.80,5.54 13.83,1.32
             17.14,0.43 17.47,0.09 21.01,0.56
             21.01,0.56 29.00,0.56 29.00,0.56
             29.00,0.56 48.00,0.56 48.00,0.56
             48.00,0.56 75.83,0.56 75.83,0.56
             75.83,0.56 89.00,0.56 89.00,0.56
             89.00,0.56 99.53,0.56 99.53,0.56
             99.53,0.56 113.00,0.56 113.00,0.56
             113.00,0.56 155.00,0.56 155.00,0.56
             155.00,0.56 194.04,0.56 194.04,0.56
             194.04,0.56 201.00,0.56 201.00,0.56
             201.00,0.56 209.00,0.56 209.00,0.56
             209.00,0.56 225.00,0.56 225.00,0.56
             225.00,0.56 262.04,0.56 262.04,0.56
             269.14,0.24 281.21,0.01 283.00,9.00
             283.00,9.00 286.00,10.00 286.00,10.00
             286.00,10.00 288.00,26.00 288.00,26.00
             288.00,26.00 288.00,188.00 288.00,188.00
             288.00,188.00 288.00,238.00 288.00,238.00
             288.00,238.00 289.00,266.00 289.00,266.00
             289.00,266.00 284.00,271.00 284.00,271.00
             283.44,276.16 281.41,276.61 278.00,280.00
             278.00,280.00 276.00,279.00 276.00,279.00
             273.52,282.22 271.67,281.55 267.93,281.55
             267.93,281.55 249.00,281.55 249.00,281.55
             249.00,281.55 234.00,281.55 234.00,281.55
             234.00,281.55 227.04,281.55 227.04,281.55
             227.04,281.55 216.00,281.55 216.00,281.55
             216.00,281.55 207.28,281.55 207.28,281.55
             207.28,281.55 196.00,281.55 196.00,281.55
             196.00,281.55 141.58,281.55 141.58,281.55
             141.58,281.55 132.00,281.55 132.00,281.55
             132.00,281.55 103.17,281.55 103.17,281.55
             103.17,281.55 94.00,281.55 94.00,281.55
             94.00,281.55 84.43,281.55 84.43,281.55
             84.43,281.55 64.99,281.55 64.99,281.55
             64.99,281.55 48.00,281.01 48.00,281.01
             48.00,281.01 34.99,281.66 34.99,281.66
             26.14,281.59 22.97,280.42 14.00,283.00 Z
           M 167.00,50.00
           C 160.17,50.46 155.59,47.96 151.00,47.54
             148.14,47.28 130.17,48.64 127.17,49.41
             97.46,57.04 72.11,80.07 60.15,108.00
             58.22,112.52 55.79,118.37 54.81,123.17
             54.02,127.06 52.31,142.60 52.52,146.28
             52.52,146.28 55.00,167.00 55.00,167.00
             55.00,167.00 59.00,178.00 59.00,178.00
             59.00,178.00 73.14,199.82 73.14,199.82
             77.46,205.60 86.95,213.43 93.00,217.48
             100.93,222.80 106.95,225.91 116.00,228.81
             120.57,230.27 128.53,231.40 132.00,234.00
             132.00,234.00 142.00,234.00 142.00,234.00
             142.00,234.00 143.00,232.00 143.00,232.00
             143.00,232.00 144.00,232.00 144.00,232.00
             145.14,235.12 151.17,233.18 154.00,233.19
             164.80,233.20 179.65,225.14 185.00,225.00
             185.00,225.00 202.00,214.00 202.00,214.00
             202.00,214.00 218.00,198.00 218.00,198.00
             218.94,193.75 222.83,188.94 226.00,186.00
             226.45,177.86 235.46,170.17 232.00,162.00
             232.00,162.00 234.00,163.00 234.00,163.00
             234.00,163.00 235.06,162.00 235.06,162.00
             235.06,162.00 235.06,131.00 235.06,131.00
             235.06,131.00 232.00,114.00 232.00,114.00
             229.09,110.63 226.19,102.56 223.69,98.00
             219.04,89.54 211.83,80.20 204.83,73.58
             199.41,68.45 190.59,61.65 184.00,58.17
             179.75,55.92 169.69,52.55 167.00,50.00 Z
           M 189.00,100.00
           C 194.60,99.79 201.95,106.84 205.38,111.00
             214.15,121.62 219.22,135.11 217.83,149.00
             217.83,149.00 215.00,163.00 215.00,163.00
             208.87,160.88 205.07,150.87 196.00,152.43
             190.90,153.31 185.73,159.05 182.76,163.00
             181.18,165.09 179.44,168.43 176.82,169.23
             174.69,169.88 170.39,168.54 168.00,168.30
             163.18,167.82 159.67,169.43 156.53,173.10
             150.80,179.80 148.67,194.02 143.00,198.00
             143.00,198.00 138.00,180.00 138.00,180.00
             138.00,180.00 136.00,180.00 136.00,180.00
             135.50,177.49 134.17,175.94 132.48,174.00
             126.20,166.80 118.67,166.87 110.00,169.00
             104.11,157.99 93.53,144.60 81.11,157.10
             79.10,159.12 78.31,160.56 77.00,163.00
             72.88,159.08 71.47,151.65 71.13,146.04
             70.17,130.30 75.85,117.49 88.00,107.32
             91.62,104.29 95.51,101.49 100.00,100.00
             99.66,113.04 105.23,121.17 116.00,128.24
             118.54,129.91 124.92,133.37 127.96,132.84
             132.29,132.08 131.81,127.81 136.00,125.00
             136.80,117.58 140.75,116.98 147.00,117.00
             147.00,117.00 153.90,125.17 153.90,125.17
             155.41,127.23 157.02,130.88 159.21,132.08
             162.07,133.64 166.42,131.51 169.00,130.10
             173.54,127.61 179.37,122.96 182.67,119.00
             184.96,116.25 186.12,113.13 189.00,111.00
             189.00,111.00 189.00,100.00 189.00,100.00 Z" />
</svg>
