<?xml version="1.0" encoding="UTF-8" standalone="no"?>
<!DOCTYPE svg PUBLIC "-//W3C//DTD SVG 20010904//EN"
              "http://www.w3.org/TR/2001/REC-SVG-20010904/DTD/svg10.dtd">

<svg xmlns="http://www.w3.org/2000/svg"
     width="4in" height="3.95833in"
     viewBox="0 0 288 285">
  <path id="Selection #1"
        fill="#ffffff" stroke="black" stroke-width="1"
        d="M 288.00,271.00
           C 285.48,272.09 284.73,276.44 280.96,279.78
             275.73,284.40 269.62,284.99 263.00,285.00
             263.00,285.00 70.00,285.00 70.00,285.00
             70.00,285.00 23.00,285.00 23.00,285.00
             16.96,284.99 11.99,284.79 7.21,280.47
             1.79,275.57 1.01,266.84 1.00,260.00
             1.00,260.00 1.00,65.00 1.00,65.00
             1.00,65.00 1.00,22.00 1.00,22.00
             1.10,14.06 3.63,6.47 11.00,2.41
             17.98,-1.42 25.51,0.99 33.00,1.00
             33.00,1.00 228.00,1.00 228.00,1.00
             228.00,1.00 266.00,1.00 266.00,1.00
             271.41,1.01 275.39,1.09 279.90,4.64
             286.08,9.51 286.99,17.72 287.00,25.00
             287.00,25.00 287.00,191.00 287.00,191.00
             287.00,191.00 287.00,243.00 287.00,243.00
             287.00,250.76 286.29,263.96 288.00,271.00 Z
           M 155.00,43.00
           C 154.82,42.48 155.24,42.15 154.23,41.54
             152.77,40.66 138.66,40.96 136.01,41.00
             133.55,41.05 131.88,40.55 131.00,43.00
             127.75,42.09 120.37,41.03 119.00,45.00
             119.00,45.00 115.00,46.00 115.00,46.00
             109.51,44.94 103.94,47.46 99.00,49.78
             86.42,55.68 79.02,60.06 69.00,70.00
             65.08,73.89 60.80,77.36 60.00,83.00
             55.70,84.05 54.14,87.85 54.00,92.00
             49.50,93.19 47.59,99.79 48.00,104.00
             45.10,104.92 45.66,106.28 46.00,109.00
             46.00,109.00 45.00,112.00 45.00,112.00
             40.87,113.35 41.09,120.50 42.00,124.00
             39.21,125.02 40.43,127.58 41.00,130.00
             40.48,130.18 40.15,129.76 39.54,130.77
             38.65,132.24 38.97,145.40 39.00,148.00
             39.05,151.56 39.35,155.72 40.82,159.00
             45.93,170.44 61.87,180.78 74.00,183.19
             78.51,184.09 85.39,184.26 90.00,183.91
             92.72,183.71 95.09,183.76 96.00,181.00
             105.47,182.83 118.00,171.05 123.24,164.00
             132.41,151.66 134.49,135.50 148.18,120.00
             154.19,113.20 161.30,108.64 170.00,106.04
             187.61,100.79 212.82,106.10 221.20,124.00
             223.63,129.18 226.23,140.29 225.95,146.00
             225.61,151.18 224.48,151.47 225.95,157.00
             222.71,158.08 223.43,161.15 224.00,164.00
             223.36,164.20 223.21,163.73 222.22,164.77
             222.22,164.77 213.94,181.00 213.94,181.00
             207.56,191.25 198.38,200.36 188.00,206.55
             188.00,206.55 172.77,214.17 172.77,214.17
             171.75,215.19 172.20,215.33 172.00,216.00
             166.40,214.91 159.73,218.05 154.00,219.20
             151.48,219.70 148.91,219.42 148.00,221.99
             148.00,221.99 132.00,221.99 132.00,221.99
             132.00,221.99 109.00,219.74 109.00,219.74
             109.00,219.74 95.00,218.00 95.00,218.00
             93.99,214.90 85.21,212.67 82.00,211.28
             74.10,207.84 66.57,203.31 60.00,197.70
             60.00,197.70 51.00,190.00 51.00,190.00
             49.38,194.79 51.92,200.76 57.00,202.00
             57.50,206.65 60.26,210.97 65.00,212.00
             65.00,212.00 73.00,223.00 73.00,223.00
             73.00,223.00 79.00,225.00 79.00,225.00
             79.96,229.02 82.08,229.81 86.00,230.00
             88.57,234.58 92.76,236.99 98.00,237.00
             98.00,237.00 100.00,238.00 100.00,238.00
             101.05,241.51 103.80,241.33 107.00,241.00
             107.00,241.00 110.00,242.00 110.00,242.00
             110.00,242.00 113.00,243.00 113.00,243.00
             113.00,243.00 117.00,244.00 117.00,244.00
             117.87,246.31 118.81,245.51 121.00,245.00
             121.96,247.63 123.66,246.61 126.00,246.00
             128.34,248.59 130.69,247.85 134.00,248.00
             134.00,248.00 132.00,248.00 132.00,248.00
             132.00,248.00 132.00,249.00 132.00,249.00
             132.00,249.00 153.00,248.00 153.00,248.00
             153.00,248.00 151.00,247.00 151.00,247.00
             154.38,247.82 163.60,248.99 165.00,245.00
             167.19,245.51 168.13,246.31 169.00,244.00
             172.35,244.65 176.82,244.86 178.00,241.00
             178.00,241.00 181.00,240.00 181.00,240.00
             181.00,240.00 184.00,241.00 184.00,241.00
             184.00,241.00 183.00,239.00 183.00,239.00
             190.47,239.72 203.23,230.24 209.00,225.54
             211.86,223.21 214.16,221.66 215.00,218.00
             221.21,216.82 229.78,206.34 230.00,200.00
             230.78,199.80 230.85,200.26 232.14,199.23
             234.62,197.26 240.75,184.33 241.14,181.00
             241.59,179.07 241.32,178.76 241.14,177.00
             241.14,177.00 242.00,174.00 242.00,174.00
             245.52,172.84 244.70,168.96 244.00,166.00
             246.30,163.84 245.64,162.95 245.00,160.00
             248.28,158.83 246.49,151.35 247.00,148.00
             247.00,148.00 248.00,151.00 248.00,151.00
             248.00,151.00 247.00,138.00 247.00,138.00
             247.00,138.00 246.00,142.00 246.00,142.00
             246.50,138.19 248.47,126.57 244.00,125.00
             244.70,122.04 245.52,118.16 242.00,117.00
             242.65,113.65 242.86,109.18 239.00,108.00
             239.36,104.22 239.26,103.13 236.00,101.00
             236.00,101.00 237.00,99.00 237.00,99.00
             237.00,99.00 235.00,99.00 235.00,99.00
             234.95,94.92 234.53,94.07 231.00,92.00
             230.76,86.94 228.41,84.27 224.00,82.00
             222.90,76.14 212.86,66.10 207.00,65.00
             204.24,59.69 196.05,54.05 190.00,54.00
             190.00,54.00 191.00,52.00 191.00,52.00
             191.00,52.00 188.00,53.00 188.00,53.00
             186.79,48.61 179.99,47.29 176.00,48.00
             176.00,48.00 173.00,47.00 173.00,47.00
             171.92,43.71 168.85,44.43 166.00,45.00
             164.69,41.18 158.15,42.13 155.00,43.00 Z
           M 124.00,43.00
           C 124.00,43.00 125.00,43.00 125.00,43.00
             125.00,43.00 124.00,44.00 124.00,44.00
             124.00,44.00 124.00,43.00 124.00,43.00 Z
           M 175.00,103.00
           C 175.00,103.00 176.00,103.00 176.00,103.00
             176.00,103.00 175.00,104.00 175.00,104.00
             175.00,104.00 175.00,103.00 175.00,103.00 Z
           M 226.00,137.00
           C 226.00,137.00 227.00,137.00 227.00,137.00
             227.00,137.00 226.00,138.00 226.00,138.00
             226.00,138.00 226.00,137.00 226.00,137.00 Z
           M 50.00,190.00
           C 50.00,190.00 49.00,190.00 49.00,190.00
             49.00,190.00 50.00,191.00 50.00,191.00
             50.00,191.00 50.00,190.00 50.00,190.00 Z
           M 70.00,218.00
           C 70.00,218.00 69.00,218.00 69.00,218.00
             69.00,218.00 70.00,219.00 70.00,219.00
             70.00,219.00 70.00,218.00 70.00,218.00 Z
           M 71.00,219.00
           C 71.00,219.00 70.00,219.00 70.00,219.00
             70.00,219.00 71.00,220.00 71.00,220.00
             71.00,220.00 71.00,219.00 71.00,219.00 Z
           M 72.00,220.00
           C 72.00,220.00 71.00,220.00 71.00,220.00
             71.00,220.00 72.00,221.00 72.00,221.00
             72.00,221.00 72.00,220.00 72.00,220.00 Z
           M 73.00,221.00
           C 73.00,221.00 72.00,221.00 72.00,221.00
             72.00,221.00 73.00,222.00 73.00,222.00
             73.00,222.00 73.00,221.00 73.00,221.00 Z
           M 139.00,222.00
           C 139.00,222.00 140.00,222.00 140.00,222.00
             140.00,222.00 139.00,223.00 139.00,223.00
             139.00,223.00 139.00,222.00 139.00,222.00 Z" />
</svg>
