<?xml version="1.0" encoding="UTF-8" standalone="no"?>
<!DOCTYPE svg PUBLIC "-//W3C//DTD SVG 20010904//EN"
              "http://www.w3.org/TR/2001/REC-SVG-20010904/DTD/svg10.dtd">

<svg xmlns="http://www.w3.org/2000/svg"
     width="3.97222in" height="3.91667in"
     viewBox="0 0 286 282">
  <path id="Selection"
        fill="#ffffff" stroke="black" stroke-width="1"
        d="M 15.00,0.62
           C 15.00,0.62 49.00,0.62 49.00,0.62
             49.00,0.62 65.17,0.62 65.17,0.62
             65.17,0.62 78.99,0.62 78.99,0.62
             78.99,0.62 112.00,0.62 112.00,0.62
             112.00,0.62 132.00,0.62 132.00,0.62
             132.00,0.62 168.12,0.62 168.12,0.62
             168.12,0.62 196.00,0.62 196.00,0.62
             196.00,0.62 209.00,0.62 209.00,0.62
             209.00,0.62 227.00,0.62 227.00,0.62
             227.00,0.62 248.00,0.62 248.00,0.62
             248.00,0.62 264.01,0.62 264.01,0.62
             264.01,0.62 271.00,0.62 271.00,0.62
             277.88,1.29 284.06,8.43 285.45,15.00
             285.45,15.00 286.00,33.00 286.00,33.00
             286.00,33.00 285.49,43.00 285.49,43.00
             285.49,43.00 286.00,64.00 286.00,64.00
             286.00,64.00 285.30,103.00 285.30,103.00
             285.30,103.00 285.82,114.01 285.82,114.01
             285.82,114.01 285.82,139.00 285.82,139.00
             285.82,139.00 285.82,248.72 285.82,248.72
             285.80,253.48 286.48,262.82 285.82,266.99
             282.63,278.70 271.61,281.98 261.00,281.80
             261.00,281.80 187.00,281.80 187.00,281.80
             187.00,281.80 163.58,281.80 163.58,281.80
             163.58,281.80 73.58,281.80 73.58,281.80
             73.58,281.80 24.00,281.80 24.00,281.80
             21.42,281.72 18.49,281.97 16.00,281.80
             4.71,279.09 0.02,269.57 0.00,259.00
             0.00,259.00 0.00,63.00 0.00,63.00
             0.00,63.00 0.00,30.00 0.00,30.00
             0.00,25.50 -0.34,15.96 1.17,11.99
             3.46,5.94 8.96,2.19 15.00,0.62 Z
           M 157.00,114.00
           C 157.00,114.00 165.25,85.00 165.25,85.00
             165.25,85.00 173.79,52.00 173.79,52.00
             174.58,48.26 176.04,41.92 170.94,40.41
             168.38,39.65 165.83,41.68 164.00,43.21
             164.00,43.21 149.17,58.00 149.17,58.00
             149.17,58.00 92.58,122.00 92.58,122.00
             92.58,122.00 74.15,143.00 74.15,143.00
             72.08,145.53 69.20,149.27 70.62,152.77
             72.35,157.08 80.19,155.88 84.00,156.04
             84.00,156.04 102.00,157.00 102.00,157.00
             109.91,157.03 117.16,156.59 125.00,158.00
             125.00,158.00 114.59,190.57 114.59,190.57
             114.59,190.57 104.67,225.00 104.67,225.00
             103.82,228.14 101.81,235.66 104.67,238.26
             107.76,241.16 112.19,238.09 114.58,235.79
             114.58,235.79 132.73,215.00 132.73,215.00
             132.73,215.00 190.42,148.00 190.42,148.00
             190.42,148.00 205.08,131.00 205.08,131.00
             207.06,128.59 210.75,124.11 211.21,121.00
             212.34,113.34 202.53,114.99 198.00,115.00
             187.17,115.02 166.74,115.72 157.00,114.00 Z
           M 103.00,234.00
           C 103.00,234.00 102.00,234.00 102.00,234.00
             102.00,234.00 103.00,235.00 103.00,235.00
             103.00,235.00 103.00,234.00 103.00,234.00 Z" />
</svg>
