<?xml version="1.0" encoding="UTF-8" standalone="no"?>
<!DOCTYPE svg PUBLIC "-//W3C//DTD SVG 20010904//EN"
              "http://www.w3.org/TR/2001/REC-SVG-20010904/DTD/svg10.dtd">

<svg xmlns="http://www.w3.org/2000/svg"
     width="4in" height="3.94444in"
     viewBox="0 0 288 284">
  <path id="Selection #3"
        fill="#ffffff" stroke="black" stroke-width="1"
        d="M 14.00,0.00
           C 14.00,0.00 15.00,0.00 15.00,0.00
             15.00,0.00 14.00,1.00 14.00,1.00
             14.00,1.00 14.00,0.00 14.00,0.00 Z
           M 16.00,1.09
           C 16.00,1.09 42.00,1.09 42.00,1.09
             42.00,1.09 87.00,1.09 87.00,1.09
             87.00,1.09 226.00,1.09 226.00,1.09
             226.00,1.09 266.00,1.09 266.00,1.09
             273.02,1.03 278.92,2.19 283.58,8.04
             287.52,12.98 287.99,20.91 288.00,27.00
             288.00,27.00 288.00,224.00 288.00,224.00
             288.00,224.00 288.00,260.00 288.00,260.00
             287.95,270.09 285.32,278.62 275.00,282.44
             270.77,284.01 267.40,283.99 263.00,284.00
             263.00,284.00 240.00,284.00 240.00,284.00
             240.00,284.00 223.00,283.00 223.00,283.00
             223.00,283.00 52.00,283.00 52.00,283.00
             52.00,283.00 26.00,283.00 26.00,283.00
             15.23,283.00 5.43,283.43 1.11,271.00
             -0.12,267.47 0.01,264.64 0.00,261.00
             0.00,261.00 0.00,64.00 0.00,64.00
             0.00,64.00 0.00,32.00 0.00,32.00
             0.00,17.32 -1.68,5.44 16.00,1.09 Z
           M 157.00,63.00
           C 157.00,58.37 157.51,41.22 156.26,38.00
             155.16,35.15 147.89,27.82 146.00,33.00
             140.76,32.62 138.81,34.83 139.00,40.00
             136.22,41.00 137.01,44.37 137.00,47.00
             137.00,47.00 137.00,62.00 137.00,62.00
             132.01,58.47 127.32,52.94 121.00,52.19
             116.13,51.62 113.05,52.79 113.00,58.00
             109.15,59.38 111.98,65.59 113.65,68.00
             116.65,72.32 124.70,78.07 129.00,82.09
             131.92,84.81 134.03,88.09 138.00,89.00
             136.77,93.34 136.31,98.74 138.00,103.00
             138.00,103.00 139.00,95.00 139.00,95.00
             139.00,95.00 137.93,118.00 137.93,118.00
             137.93,118.00 136.00,126.00 136.00,126.00
             136.00,126.00 131.00,127.00 131.00,127.00
             130.11,124.24 126.46,123.41 124.00,121.94
             119.74,119.39 107.85,113.31 105.23,110.67
             98.77,104.18 100.19,81.24 93.35,73.23
             89.03,68.16 79.08,68.99 79.00,77.00
             76.52,77.90 77.23,79.62 77.62,82.01
             77.62,82.01 81.00,97.00 81.00,97.00
             73.35,93.69 64.88,86.34 57.00,87.11
             49.24,87.87 45.84,96.18 49.74,101.90
             53.31,107.13 63.35,109.54 69.00,116.00
             69.00,116.00 67.00,118.00 67.00,118.00
             56.15,116.62 45.73,128.34 51.60,135.72
             53.65,138.31 61.57,140.99 63.00,137.00
             69.62,137.86 78.70,133.29 85.00,130.95
             88.39,129.69 91.31,128.05 95.00,129.06
             98.52,130.03 115.08,139.51 117.55,142.20
             118.74,143.51 121.69,147.25 121.27,149.10
             120.71,151.60 114.20,155.02 112.00,156.28
             108.43,158.32 98.27,164.49 95.00,165.35
             95.00,165.35 86.00,166.00 86.00,166.00
             84.94,162.79 79.97,162.65 77.00,161.85
             69.83,159.92 51.99,154.54 50.24,166.00
             49.15,173.15 55.17,178.21 62.00,177.00
             62.90,179.96 66.31,180.62 69.00,182.00
             63.65,183.52 53.03,188.42 50.01,193.09
             46.13,199.08 48.34,207.59 56.00,208.76
             62.62,209.77 74.44,200.93 81.00,198.00
             78.61,205.82 73.97,222.94 86.00,224.76
             92.27,225.71 95.57,221.45 97.22,216.00
             97.22,216.00 102.65,188.09 102.65,188.09
             104.17,184.99 108.27,182.27 111.00,180.09
             114.73,177.12 127.73,168.83 132.00,167.68
             132.00,167.68 139.00,167.00 139.00,167.00
             137.37,172.73 137.37,193.27 139.00,199.00
             136.47,200.83 136.75,200.93 137.00,204.00
             137.00,204.00 129.96,210.08 129.96,210.08
             129.96,210.08 113.21,226.09 113.21,226.09
             113.21,226.09 113.21,230.00 113.21,230.00
             110.05,231.06 110.86,235.57 112.17,237.89
             113.95,241.03 115.78,241.23 119.00,241.00
             119.00,241.00 118.00,243.00 118.00,243.00
             128.55,240.06 128.63,237.87 137.00,231.00
             137.00,237.23 135.97,247.88 139.70,252.89
             144.07,258.76 154.50,258.63 155.00,250.00
             159.68,246.74 158.00,236.34 158.00,231.00
             162.65,235.27 168.21,241.98 175.00,241.00
             175.00,241.00 174.00,243.00 174.00,243.00
             179.08,241.50 182.47,239.79 182.94,234.00
             183.14,231.53 183.51,228.90 181.00,228.00
             181.00,228.00 180.17,224.17 180.17,224.17
             180.17,224.17 164.00,210.13 164.00,210.13
             164.00,210.13 156.00,205.00 156.00,205.00
             156.00,205.00 158.00,202.00 158.00,202.00
             156.18,194.50 156.60,172.82 158.00,165.00
             158.00,165.00 163.00,165.00 163.00,165.00
             163.91,168.07 167.33,169.00 170.00,170.62
             170.00,170.62 186.89,180.96 186.89,180.96
             189.46,182.84 190.27,186.13 193.00,187.00
             192.60,188.70 192.33,189.13 192.41,191.00
             192.54,194.17 197.01,213.39 198.44,215.96
             200.15,219.03 203.34,221.58 207.00,221.58
             210.59,221.58 213.92,219.04 215.55,215.96
             216.70,213.78 217.71,210.99 215.00,210.00
             216.29,205.08 215.46,201.78 214.00,197.00
             219.96,199.66 231.40,207.64 237.00,207.63
             245.29,207.62 249.98,198.99 245.26,192.10
             242.17,187.58 231.05,183.40 226.00,178.00
             226.00,178.00 228.00,176.00 228.00,176.00
             232.95,176.64 240.14,174.48 243.57,170.66
             248.10,165.63 245.51,158.72 239.00,156.65
             236.98,156.01 234.12,155.95 232.00,156.04
             223.65,156.40 205.86,165.13 200.00,164.40
             196.93,164.02 187.36,158.06 184.00,156.23
             180.64,154.40 172.83,150.81 171.92,147.05
             171.92,147.05 171.92,142.00 171.92,142.00
             180.60,141.93 189.92,130.75 199.00,128.68
             205.65,127.16 213.37,134.67 222.00,133.00
             223.28,136.90 232.18,138.14 235.00,135.00
             242.15,136.21 245.87,129.98 242.82,124.02
             239.97,118.43 232.83,116.17 227.00,117.00
             227.00,117.00 226.00,113.00 226.00,113.00
             226.00,113.00 229.00,110.00 229.00,110.00
             235.82,110.31 252.57,100.70 246.26,91.04
             245.01,89.13 243.13,87.56 241.00,86.74
             232.59,83.50 222.70,92.81 213.79,96.00
             215.57,90.64 217.69,79.78 213.79,75.28
             207.86,69.04 196.40,73.50 198.00,83.00
             195.37,83.96 196.39,85.66 197.00,88.00
             193.81,90.63 194.11,93.23 195.00,97.00
             195.00,97.00 187.78,112.22 187.78,112.22
             187.78,112.22 168.00,123.69 168.00,123.69
             168.00,123.69 159.00,128.00 159.00,128.00
             156.78,116.43 156.98,109.51 157.00,98.00
             157.01,94.78 156.73,91.86 158.60,89.04
             163.78,81.21 180.90,75.32 181.00,65.00
             185.70,60.78 181.94,52.00 174.00,52.10
             167.86,52.17 161.23,58.97 157.00,63.00 Z
           M 80.00,98.00
           C 80.00,98.00 81.00,98.00 81.00,98.00
             81.00,98.00 80.00,99.00 80.00,99.00
             80.00,99.00 80.00,98.00 80.00,98.00 Z
           M 133.00,165.00
           C 133.00,165.00 134.00,165.00 134.00,165.00
             134.00,165.00 133.00,166.00 133.00,166.00
             133.00,166.00 133.00,165.00 133.00,165.00 Z
           M 156.00,246.00
           C 156.00,246.00 157.00,246.00 157.00,246.00
             157.00,246.00 156.00,247.00 156.00,247.00
             156.00,247.00 156.00,246.00 156.00,246.00 Z" />
</svg>
