<?xml version="1.0" encoding="UTF-8" standalone="no"?>
<!DOCTYPE svg PUBLIC "-//W3C//DTD SVG 20010904//EN"
              "http://www.w3.org/TR/2001/REC-SVG-20010904/DTD/svg10.dtd">

<svg xmlns="http://www.w3.org/2000/svg"
     width="4.02778in" height="3.90278in"
     viewBox="0 0 290 281">
  <path id="Selection #5"
        fill="#ffffff" stroke="black" stroke-width="1"
        d="M 16.00,0.53
           C 16.00,0.53 46.00,0.00 46.00,0.00
             46.00,0.00 100.00,0.00 100.00,0.00
             100.00,0.00 267.00,0.00 267.00,0.00
             270.64,0.01 273.47,-0.12 277.00,1.11
             290.76,5.89 289.70,17.22 289.91,28.89
             289.91,28.89 289.91,55.00 289.91,55.00
             289.91,55.00 289.91,241.00 289.91,241.00
             290.02,255.01 292.85,274.70 276.00,279.95
             272.27,281.11 269.81,280.99 266.00,281.00
             266.00,281.00 63.00,281.00 63.00,281.00
             63.00,281.00 29.00,281.00 29.00,281.00
             23.57,281.00 16.81,281.66 12.00,278.91
             2.69,273.60 1.03,262.85 1.18,253.09
             1.18,253.09 1.90,240.00 1.90,240.00
             1.90,240.00 1.90,59.00 1.90,59.00
             1.90,59.00 1.90,29.00 1.90,29.00
             2.00,15.58 0.08,5.29 16.00,0.53 Z
           M 0.00,23.00
           C 0.00,23.00 1.00,45.00 1.00,45.00
             1.00,45.00 1.00,85.00 1.00,85.00
             1.00,85.00 0.00,105.00 0.00,105.00
             0.00,105.00 0.00,23.00 0.00,23.00 Z
           M 217.00,58.00
           C 216.02,54.48 212.25,54.03 209.00,53.02
             199.83,50.18 195.44,49.89 186.00,50.00
             167.00,50.23 152.01,61.99 142.87,78.00
             140.31,82.49 137.54,88.80 137.35,94.00
             137.35,94.00 137.35,101.00 137.35,101.00
             137.35,101.00 137.35,107.00 137.35,107.00
             137.27,112.99 141.29,120.41 145.44,124.56
             149.34,128.47 152.36,131.00 158.00,130.00
             159.08,133.16 163.27,132.91 166.00,132.00
             166.00,132.00 163.00,131.23 163.00,131.23
             165.86,131.50 168.07,132.09 171.00,131.23
             176.91,130.18 186.04,122.82 184.53,116.04
             183.38,110.90 176.92,109.73 173.09,103.00
             166.63,91.66 179.73,82.49 190.00,82.04
             207.00,81.29 220.60,97.61 219.96,114.00
             219.53,124.93 214.36,135.50 205.99,142.54
             194.76,151.97 179.54,156.33 165.00,155.99
             165.00,155.99 139.00,154.00 139.00,154.00
             139.00,154.00 117.00,154.00 117.00,154.00
             127.02,134.43 126.48,112.98 105.00,101.64
             100.13,99.07 91.35,96.04 86.00,98.00
             86.00,98.00 90.00,99.00 90.00,99.00
             87.56,98.68 84.38,97.99 82.00,98.43
             74.79,99.77 67.95,108.56 69.23,115.99
             70.96,126.00 82.63,121.24 89.30,131.02
             93.75,137.53 91.42,147.22 86.61,152.91
             81.63,158.80 70.04,162.44 60.00,172.04
             54.10,177.68 47.23,185.83 43.31,193.00
             42.18,195.07 38.99,199.80 42.00,200.93
             43.23,204.41 47.68,202.24 50.00,200.93
             50.00,200.93 57.00,195.77 57.00,195.77
             60.55,193.32 67.03,189.75 71.00,188.00
             84.99,181.85 92.63,179.35 108.00,177.93
             108.00,177.93 115.00,177.18 115.00,177.18
             115.00,177.18 148.00,180.87 148.00,180.87
             148.00,180.87 172.00,184.00 172.00,184.00
             172.00,184.00 173.00,182.00 173.00,182.00
             173.00,182.00 174.00,182.00 174.00,182.00
             175.15,185.22 180.41,184.03 183.00,183.00
             183.00,183.00 180.00,182.00 180.00,182.00
             180.00,182.00 188.00,182.92 188.00,182.92
             210.84,182.92 237.66,165.22 247.63,145.00
             253.48,133.13 254.15,122.84 254.00,110.00
             253.80,93.31 246.04,76.29 233.00,65.81
             228.48,62.18 223.04,57.51 217.00,58.00 Z
           M 137.00,98.00
           C 137.00,98.00 137.00,104.00 137.00,104.00
             137.00,104.00 137.00,98.00 137.00,98.00 Z
           M 0.00,117.00
           C 0.00,117.00 1.00,117.00 1.00,117.00
             1.00,117.00 0.00,118.00 0.00,118.00
             0.00,118.00 0.00,117.00 0.00,117.00 Z
           M 0.00,120.00
           C 0.00,120.00 1.00,120.00 1.00,120.00
             1.00,120.00 0.00,121.00 0.00,121.00
             0.00,121.00 0.00,120.00 0.00,120.00 Z
           M 176.00,156.00
           C 176.00,156.00 177.00,156.00 177.00,156.00
             177.00,156.00 176.00,157.00 176.00,157.00
             176.00,157.00 176.00,156.00 176.00,156.00 Z
           M 0.00,168.00
           C 0.00,168.00 0.00,175.00 0.00,175.00
             0.00,175.00 0.00,168.00 0.00,168.00 Z
           M 154.00,180.00
           C 154.00,180.00 155.00,180.00 155.00,180.00
             155.00,180.00 154.00,181.00 154.00,181.00
             154.00,181.00 154.00,180.00 154.00,180.00 Z" />
</svg>
