<?xml version="1.0" encoding="UTF-8" standalone="no"?>
<!DOCTYPE svg PUBLIC "-//W3C//DTD SVG 20010904//EN"
              "http://www.w3.org/TR/2001/REC-SVG-20010904/DTD/svg10.dtd">

<svg xmlns="http://www.w3.org/2000/svg"
     width="4.02778in" height="4in"
     viewBox="0 0 290 288">
  <path id="Selection #2"
        fill="#ffffff" stroke="black" stroke-width="1"
        d="M 168.00,0.00
           C 174.26,0.00 192.17,-0.91 197.00,1.00
             190.74,1.00 172.83,1.91 168.00,0.00 Z
           M 198.00,0.00
           C 198.00,0.00 214.00,1.00 214.00,1.00
             214.00,1.00 198.00,0.00 198.00,0.00 Z
           M 18.00,1.88
           C 18.00,1.88 31.00,1.88 31.00,1.88
             31.00,1.88 64.00,1.88 64.00,1.88
             64.00,1.88 187.00,1.88 187.00,1.88
             187.00,1.88 227.00,1.88 227.00,1.88
             227.00,1.88 251.00,1.88 251.00,1.88
             265.95,0.85 283.27,-0.92 287.96,18.00
             288.98,22.13 288.99,24.83 289.00,29.00
             289.00,29.00 289.00,177.00 289.00,177.00
             289.00,177.00 288.00,195.00 288.00,195.00
             288.00,195.00 288.00,226.00 288.00,226.00
             288.00,226.00 288.00,258.00 288.00,258.00
             288.00,263.07 288.61,270.43 286.64,275.00
             282.58,284.37 275.20,285.99 266.00,286.25
             266.00,286.25 195.00,286.25 195.00,286.25
             195.00,286.25 182.00,286.25 182.00,286.25
             182.00,286.25 170.00,286.25 170.00,286.25
             170.00,286.25 159.91,286.25 159.91,286.25
             159.91,286.25 144.00,286.25 144.00,286.25
             144.00,286.25 136.58,286.25 136.58,286.25
             136.58,286.25 130.00,286.25 130.00,286.25
             130.00,286.25 122.42,286.25 122.42,286.25
             122.42,286.25 111.00,286.25 111.00,286.25
             111.00,286.25 44.00,286.25 44.00,286.25
             30.17,286.00 7.11,289.75 1.63,273.00
             0.28,268.86 0.01,263.34 0.00,259.00
             0.00,259.00 0.00,63.00 0.00,63.00
             0.00,63.00 0.00,27.00 0.00,27.00
             0.16,13.24 3.20,4.11 18.00,1.88 Z
           M 71.00,235.00
           C 71.00,235.00 98.00,236.00 98.00,236.00
             98.00,236.00 113.00,237.00 113.00,237.00
             113.00,237.00 135.00,237.00 135.00,237.00
             136.95,237.00 140.13,237.12 141.90,236.40
             145.63,234.89 150.80,224.74 152.99,221.00
             152.99,221.00 164.74,200.00 164.74,200.00
             169.69,190.42 173.71,180.74 180.16,172.00
             184.63,165.93 190.27,160.51 197.00,156.98
             203.77,153.43 212.42,151.86 216.65,144.98
             216.65,144.98 229.25,119.00 229.25,119.00
             230.80,115.90 234.59,109.20 234.66,106.00
             234.75,101.81 228.14,93.63 225.58,90.00
             225.58,90.00 208.28,65.00 208.28,65.00
             206.51,62.47 202.00,55.57 199.68,54.17
             197.32,52.76 193.69,53.00 191.00,53.00
             191.00,53.00 161.00,53.00 161.00,53.00
             127.05,53.40 96.62,69.39 73.00,93.00
             63.53,102.46 55.13,111.74 49.32,124.00
             46.24,130.49 43.00,139.87 42.08,147.00
             42.08,147.00 42.08,160.00 42.08,160.00
             42.08,160.00 41.00,155.00 41.00,155.00
             41.34,170.51 45.23,185.79 47.92,201.00
             48.65,205.17 50.55,217.99 52.59,220.91
             54.27,223.30 66.20,231.74 69.00,232.88
             70.54,233.52 72.36,233.70 74.00,234.00
             74.00,234.00 71.00,235.00 71.00,235.00 Z
           M 85.00,178.00
           C 86.75,156.55 96.74,133.29 112.17,118.28
             120.95,109.74 130.61,104.40 141.00,98.20
             148.24,93.88 154.22,90.48 162.00,87.15
             165.53,85.64 168.13,83.96 172.00,85.00
             153.58,98.08 125.34,116.26 111.62,133.00
             100.34,146.75 90.39,171.22 85.00,178.00 Z
           M 238.00,126.00
           C 238.00,126.00 221.79,153.91 221.79,153.91
             214.31,161.98 208.00,158.50 197.00,166.49
             194.51,168.30 191.37,170.84 189.30,173.09
             189.30,173.09 161.00,216.00 161.00,216.00
             158.69,219.55 149.84,230.88 152.07,234.69
             154.05,238.08 165.28,237.04 169.00,237.00
             169.00,237.00 179.00,236.09 179.00,236.09
             192.04,235.20 212.64,234.26 224.00,227.64
             231.52,223.25 235.74,214.61 239.29,207.00
             241.50,202.27 246.23,190.88 246.82,186.00
             247.66,179.08 246.14,170.93 245.28,164.00
             245.28,164.00 241.00,127.00 241.00,127.00
             241.00,127.00 238.00,126.00 238.00,126.00 Z
           M 289.00,189.00
           C 290.46,192.69 290.46,197.31 289.00,201.00
             289.00,201.00 289.00,189.00 289.00,189.00 Z
           M 89.00,287.00
           C 89.00,287.00 103.00,288.00 103.00,288.00
             103.00,288.00 89.00,287.00 89.00,287.00 Z" />
</svg>
