<?xml version="1.0" encoding="UTF-8" standalone="no"?>
<!DOCTYPE svg PUBLIC "-//W3C//DTD SVG 20010904//EN"
              "http://www.w3.org/TR/2001/REC-SVG-20010904/DTD/svg10.dtd">

<svg xmlns="http://www.w3.org/2000/svg"
     width="4.01389in" height="3.91667in"
     viewBox="0 0 289 282">
  <path id="Selection #1"
        fill="#ffffff" stroke="black" stroke-width="1"
        d="M 14.68,0.60
           C 14.68,0.60 44.00,0.60 44.00,0.60
             44.00,0.60 78.96,0.60 78.96,0.60
             78.96,0.60 98.00,0.60 98.00,0.60
             98.00,0.60 109.00,0.60 109.00,0.60
             109.00,0.60 147.00,0.60 147.00,0.60
             147.00,0.60 169.91,0.60 169.91,0.60
             169.91,0.60 180.01,0.60 180.01,0.60
             180.01,0.60 195.02,0.60 195.02,0.60
             195.02,0.60 202.17,0.60 202.17,0.60
             202.17,0.60 215.00,0.60 215.00,0.60
             215.00,0.60 224.89,0.60 224.89,0.60
             224.89,0.60 235.00,0.60 235.00,0.60
             235.00,0.60 249.32,0.60 249.32,0.60
             249.32,0.60 258.00,0.60 258.00,0.60
             268.46,0.15 279.39,-1.70 285.78,9.00
             288.27,13.16 288.99,20.23 289.00,25.00
             289.00,25.00 289.00,221.00 289.00,221.00
             289.00,221.00 289.00,249.00 289.00,249.00
             289.00,262.82 289.69,275.33 274.00,280.87
             270.57,282.08 264.78,281.94 261.00,281.80
             261.00,281.80 248.97,281.80 248.97,281.80
             248.97,281.80 219.00,281.80 219.00,281.80
             219.00,281.80 178.00,281.80 178.00,281.80
             178.00,281.80 55.70,281.80 55.70,281.80
             55.70,281.80 26.85,281.80 26.85,281.80
             23.89,281.92 17.67,281.87 14.99,281.07
             2.88,277.47 0.02,267.27 0.00,256.00
             0.00,256.00 0.00,63.00 0.00,63.00
             0.00,63.00 0.00,24.00 0.00,24.00
             0.05,12.81 2.93,4.06 14.68,0.60 Z
           M 174.00,40.00
           C 174.00,40.00 151.00,36.79 151.00,36.79
             130.59,35.88 108.55,41.63 92.00,53.76
             80.74,62.01 77.75,68.95 71.00,75.00
             71.00,75.00 64.27,89.83 64.27,89.83
             64.27,89.83 58.12,112.00 58.12,112.00
             58.12,112.00 58.12,132.00 58.12,132.00
             58.12,132.00 62.00,146.00 62.00,146.00
             64.61,148.60 70.68,157.47 70.92,161.00
             70.92,161.00 69.04,173.00 69.04,173.00
             68.60,184.09 74.62,189.12 85.00,191.30
             93.49,193.09 102.27,191.48 103.55,203.00
             104.31,209.85 99.28,220.52 109.02,225.43
             110.85,226.36 113.95,227.12 116.00,227.51
             119.11,228.40 122.81,229.64 125.61,227.51
             130.06,223.82 129.00,215.79 134.00,209.00
             134.00,213.15 133.36,224.72 135.17,227.87
             138.66,233.93 153.39,233.28 157.26,227.87
             160.68,223.09 158.76,215.62 160.00,210.00
             161.67,214.19 163.96,224.80 166.72,227.42
             169.53,229.77 173.79,228.48 177.00,227.42
             179.64,226.83 185.41,225.06 187.30,223.21
             191.61,219.03 189.48,208.18 189.90,202.58
             190.63,192.86 195.35,193.11 203.00,192.14
             203.00,192.14 213.00,191.00 213.00,191.00
             215.80,187.29 220.94,186.47 223.28,180.00
             225.94,172.62 220.90,163.91 221.77,160.00
             222.31,157.55 227.40,151.14 229.10,148.00
             232.74,141.28 234.96,132.62 235.00,125.00
             235.02,120.23 235.25,112.44 234.29,108.00
             233.10,102.49 229.90,95.30 230.00,90.00
             230.00,90.00 222.54,78.17 222.54,78.17
             222.54,78.17 207.96,60.29 207.96,60.29
             207.96,60.29 188.00,46.81 188.00,46.81
             188.00,46.81 174.00,40.00 174.00,40.00 Z
           M 101.00,114.52
           C 110.43,114.31 122.66,116.84 128.35,125.00
             134.21,133.42 130.07,147.95 121.71,153.25
             118.29,155.42 111.07,156.58 107.00,156.79
             101.31,157.09 92.60,155.15 88.68,150.79
             81.88,143.22 82.39,125.21 90.13,118.39
             93.43,115.49 96.85,115.06 101.00,114.52 Z
           M 174.00,117.00
           C 174.00,117.00 184.00,115.26 184.00,115.26
             184.00,115.26 198.00,114.00 198.00,114.00
             198.00,114.00 197.00,116.00 197.00,116.00
             197.00,116.00 198.00,117.00 198.00,117.00
             198.00,117.00 200.00,116.00 200.00,116.00
             200.00,116.00 200.00,118.00 200.00,118.00
             204.11,118.83 204.76,119.87 205.00,124.00
             205.00,124.00 207.00,124.00 207.00,124.00
             207.00,124.00 208.00,126.00 208.00,126.00
             208.15,130.56 210.66,138.68 207.00,142.00
             207.00,142.00 208.00,146.00 208.00,146.00
             208.00,146.00 203.18,151.96 203.18,151.96
             197.91,155.95 180.83,159.17 176.00,154.00
             176.00,154.00 173.00,155.00 173.00,155.00
             173.00,155.00 171.00,154.00 171.00,154.00
             171.00,154.00 171.00,152.00 171.00,152.00
             165.55,151.29 163.55,145.95 164.00,141.00
             164.00,141.00 162.00,141.00 162.00,141.00
             162.00,141.00 161.00,135.00 161.00,135.00
             161.00,135.00 161.00,137.00 161.00,137.00
             161.00,137.00 160.00,137.00 160.00,137.00
             160.00,137.00 161.00,132.00 161.00,132.00
             161.00,132.00 162.00,134.00 162.00,134.00
             162.59,126.66 165.45,119.09 174.00,119.00
             174.00,119.00 174.00,117.00 174.00,117.00 Z
           M 181.00,157.00
           C 181.00,157.00 182.00,157.00 182.00,157.00
             182.00,157.00 181.00,158.00 181.00,158.00
             181.00,158.00 181.00,157.00 181.00,157.00 Z
           M 144.00,159.14
           C 150.46,157.31 154.63,167.02 156.48,172.00
             157.38,174.22 158.69,178.02 156.48,179.83
             153.12,182.45 148.31,178.94 144.04,179.83
             141.92,179.86 138.96,181.47 136.52,179.83
             133.69,178.56 134.58,175.48 135.36,173.00
             137.01,167.73 139.65,162.60 144.00,159.14 Z" />
</svg>
