<?xml version="1.0" encoding="UTF-8" standalone="no"?>
<!DOCTYPE svg PUBLIC "-//W3C//DTD SVG 20010904//EN"
              "http://www.w3.org/TR/2001/REC-SVG-20010904/DTD/svg10.dtd">

<svg xmlns="http://www.w3.org/2000/svg"
     width="4.02778in" height="3.90278in"
     viewBox="0 0 290 281">
  <path id="Selection #2"
        fill="#ffffff" stroke="black" stroke-width="1"
        d="M 14.00,3.00
           C 16.93,-0.56 21.71,0.01 26.00,0.00
             26.00,0.00 43.00,0.00 43.00,0.00
             43.00,0.00 127.00,0.00 127.00,0.00
             127.00,0.00 265.00,0.00 265.00,0.00
             281.92,0.20 288.97,9.89 289.00,26.00
             289.00,26.00 289.00,187.00 289.00,187.00
             289.00,187.00 289.00,237.00 289.00,237.00
             289.00,244.61 288.31,257.04 290.00,264.00
             286.28,265.24 288.67,270.01 281.62,276.48
             275.98,281.66 267.18,280.99 260.00,280.74
             260.00,280.74 128.99,280.74 128.99,280.74
             128.99,280.74 91.57,280.74 91.57,280.74
             91.57,280.74 67.72,280.74 67.72,280.74
             67.72,280.74 49.04,280.74 49.04,280.74
             49.04,280.74 41.54,280.74 41.54,280.74
             41.54,280.74 28.04,280.74 28.04,280.74
             14.91,280.91 4.49,280.71 1.02,265.00
             0.01,260.46 0.01,258.56 0.00,254.00
             0.00,254.00 0.00,61.00 0.00,61.00
             0.00,61.00 0.81,17.00 0.81,17.00
             2.23,9.88 5.89,3.09 14.00,3.00 Z
           M 198.00,61.00
           C 198.00,61.00 182.00,53.86 182.00,53.86
             172.68,50.07 158.05,46.38 148.00,46.74
             138.09,47.11 129.59,48.11 120.04,51.02
             120.04,51.02 103.00,57.00 103.00,57.00
             99.39,60.69 94.23,63.38 90.00,66.66
             83.02,72.08 78.23,76.94 72.90,84.00
             48.89,115.77 47.32,159.81 69.36,193.00
             73.59,199.38 81.41,208.31 87.28,213.13
             87.28,213.13 102.00,224.00 102.00,224.00
             102.00,224.00 117.00,229.48 117.00,229.48
             125.14,232.23 139.50,235.39 148.00,234.91
             168.12,233.76 186.66,228.12 203.00,216.08
             203.00,216.08 221.00,200.00 221.00,200.00
             221.88,196.55 225.95,191.48 227.99,188.00
             231.08,182.71 235.72,172.28 237.41,166.43
             240.37,156.14 240.02,146.51 240.00,136.00
             239.97,117.79 231.92,98.44 221.11,84.00
             209.66,68.72 205.81,69.71 198.00,61.00 Z
           M 126.00,80.00
           C 128.94,76.43 134.66,76.35 139.00,75.73
             152.71,73.77 166.87,76.65 179.00,83.31
             221.23,106.50 223.77,170.66 183.00,196.56
             168.01,206.08 151.27,208.70 134.00,205.39
             128.65,204.36 120.08,202.75 117.00,198.00
             108.54,197.17 97.92,185.69 93.21,179.00
             90.75,175.51 89.14,173.34 89.00,169.00
             81.92,163.69 81.91,145.27 82.00,137.00
             82.22,118.56 92.02,100.97 106.00,89.32
             111.14,85.04 119.13,79.66 126.00,80.00 Z" />
</svg>
