<?xml version="1.0" encoding="UTF-8" standalone="no"?>
<!DOCTYPE svg PUBLIC "-//W3C//DTD SVG 20010904//EN"
              "http://www.w3.org/TR/2001/REC-SVG-20010904/DTD/svg10.dtd">

<svg xmlns="http://www.w3.org/2000/svg"
     width="4.02778in" height="3.95833in"
     viewBox="0 0 290 285">
  <path id="Selection"
        fill="#ffffff" stroke="black" stroke-width="1"
        d="M 257.00,0.42
           C 268.62,-0.99 282.35,-0.60 287.52,12.00
             289.33,16.40 289.98,23.23 290.00,28.00
             290.00,28.00 290.00,223.00 290.00,223.00
             290.00,223.00 290.00,260.00 290.00,260.00
             289.93,265.62 288.83,273.34 285.35,277.91
             280.55,284.22 274.28,284.99 267.00,285.00
             267.00,285.00 64.00,285.00 64.00,285.00
             64.00,285.00 25.00,285.00 25.00,285.00
             19.40,284.97 13.58,284.22 9.04,280.58
             2.88,275.64 2.01,268.33 2.00,261.00
             2.00,261.00 2.00,61.00 2.00,61.00
             2.00,61.00 2.00,24.00 2.00,24.00
             2.02,9.63 6.46,1.03 22.00,1.00
             22.00,1.00 178.00,1.00 178.00,1.00
             178.00,1.00 228.00,1.00 228.00,1.00
             228.00,1.00 257.00,0.42 257.00,0.42 Z
           M 167.00,250.00
           C 172.22,252.28 173.90,250.58 179.00,248.68
             185.19,246.38 194.35,242.40 200.00,239.13
             206.25,235.51 213.73,229.47 218.41,224.00
             223.87,217.60 226.79,213.81 230.13,206.00
             245.75,169.50 210.38,143.25 210.00,111.00
             210.00,111.00 210.83,98.00 210.83,98.00
             211.87,84.54 200.24,95.73 196.81,100.00
             191.81,106.21 187.39,114.21 185.50,122.00
             184.66,125.45 184.21,130.91 179.90,131.88
             175.35,132.91 172.97,127.58 172.33,124.00
             172.33,124.00 173.00,96.00 173.00,96.00
             172.76,75.60 162.49,54.66 147.00,41.59
             140.91,36.45 137.06,32.29 129.00,31.00
             127.51,37.29 130.55,43.64 130.91,50.00
             131.14,54.03 129.56,63.95 128.52,68.00
             128.52,68.00 109.76,114.00 109.76,114.00
             107.22,123.74 108.96,126.14 109.00,135.00
             109.03,141.63 109.86,157.20 100.98,159.04
             97.55,159.75 94.66,156.54 92.97,153.98
             89.28,148.40 88.03,139.59 87.97,133.00
             87.97,133.00 87.97,128.02 87.97,128.02
             87.55,123.60 85.30,121.54 81.67,125.19
             79.51,127.36 75.45,134.12 73.86,137.00
             69.12,145.63 64.02,160.17 63.09,170.00
             63.09,170.00 63.09,179.00 63.09,179.00
             63.09,179.00 62.00,176.00 62.00,176.00
             62.00,184.10 61.97,191.00 63.90,199.00
             69.53,222.35 85.43,235.99 107.00,244.55
             112.83,246.86 119.88,248.95 126.00,250.35
             128.07,250.82 131.89,251.80 133.89,251.24
             135.62,250.75 135.86,250.09 137.00,249.00
             131.36,243.36 126.72,239.56 123.63,232.00
             116.08,213.54 122.90,186.55 136.32,172.17
             139.08,169.22 142.53,167.00 146.00,165.00
             146.00,165.00 149.00,169.00 149.00,169.00
             149.00,169.00 148.00,172.00 148.00,172.00
             148.00,172.00 150.00,171.00 150.00,171.00
             150.00,171.00 151.00,173.00 151.00,173.00
             151.00,173.00 150.00,175.00 150.00,175.00
             150.00,175.00 151.00,177.00 151.00,177.00
             151.00,177.00 154.00,178.00 154.00,178.00
             154.00,178.00 153.00,180.00 153.00,180.00
             153.00,180.00 156.00,181.00 156.00,181.00
             157.05,190.75 171.70,197.54 177.57,205.00
             184.56,213.78 183.14,227.89 177.57,237.00
             177.57,237.00 167.00,250.00 167.00,250.00 Z
           M 232.00,181.00
           C 232.00,181.00 233.00,181.00 233.00,181.00
             233.00,181.00 232.00,182.00 232.00,182.00
             232.00,182.00 232.00,181.00 232.00,181.00 Z
           M 63.00,188.00
           C 63.00,188.00 64.00,188.00 64.00,188.00
             64.00,188.00 63.00,189.00 63.00,189.00
             63.00,189.00 63.00,188.00 63.00,188.00 Z
           M 119.00,210.00
           C 119.00,210.00 120.00,210.00 120.00,210.00
             120.00,210.00 119.00,211.00 119.00,211.00
             119.00,211.00 119.00,210.00 119.00,210.00 Z" />
</svg>
