<?xml version="1.0" encoding="UTF-8" standalone="no"?>
<!DOCTYPE svg PUBLIC "-//W3C//DTD SVG 20010904//EN"
              "http://www.w3.org/TR/2001/REC-SVG-20010904/DTD/svg10.dtd">

<svg xmlns="http://www.w3.org/2000/svg"
     width="4.02778in" height="3.95833in"
     viewBox="0 0 290 285">
  <path id="Selection #4"
        fill="#ffffff" stroke="black" stroke-width="1"
        d="M 76.00,0.00
           C 82.38,0.00 101.13,-0.93 106.00,1.00
             99.62,1.00 80.87,1.93 76.00,0.00 Z
           M 0.00,17.00
           C 2.62,15.84 2.53,11.56 5.39,8.04
             10.58,1.64 15.37,1.01 23.00,1.00
             23.00,1.00 63.00,1.00 63.00,1.00
             63.00,1.00 82.00,2.00 82.00,2.00
             82.00,2.00 106.00,2.00 106.00,2.00
             106.00,2.00 126.00,1.00 126.00,1.00
             126.00,1.00 220.00,1.00 220.00,1.00
             220.00,1.00 260.00,1.00 260.00,1.00
             267.01,1.00 274.82,0.06 280.98,3.99
             288.67,8.90 289.99,17.66 290.00,26.00
             290.00,26.00 290.00,258.00 290.00,258.00
             289.99,261.99 290.07,264.03 289.10,268.00
             286.34,279.35 281.98,282.07 271.00,283.21
             271.00,283.21 245.00,283.21 245.00,283.21
             245.00,283.21 174.00,283.21 174.00,283.21
             174.00,283.21 155.00,284.00 155.00,284.00
             155.00,284.00 60.00,284.00 60.00,284.00
             60.00,284.00 40.00,283.00 40.00,283.00
             24.51,282.98 6.40,286.85 2.02,267.00
             1.01,262.46 1.01,260.56 1.00,256.00
             1.00,256.00 1.00,98.00 1.00,98.00
             1.00,98.00 1.00,48.00 1.00,48.00
             1.00,38.14 1.71,26.56 0.00,17.00 Z
           M 149.00,31.00
           C 147.69,27.39 138.07,29.76 138.00,37.00
             135.26,37.98 136.12,41.37 136.00,44.00
             136.00,44.00 136.00,42.00 136.00,42.00
             136.00,42.00 135.00,42.00 135.00,42.00
             135.00,42.00 135.00,69.00 135.00,69.00
             135.00,69.00 136.00,86.00 136.00,86.00
             130.26,86.81 128.16,87.63 123.00,90.26
             120.89,91.33 117.36,93.70 115.00,93.28
             112.12,92.78 107.16,87.16 105.00,85.00
             99.81,79.81 87.58,66.70 81.00,64.65
             73.37,62.28 64.93,67.59 68.00,76.00
             68.00,76.00 68.91,72.00 68.91,72.00
             68.73,74.17 68.17,76.89 68.91,79.00
             69.81,82.15 73.68,85.66 76.00,88.00
             76.00,88.00 89.00,102.00 89.00,102.00
             90.77,103.79 95.22,107.93 96.13,110.00
             97.41,112.92 95.51,115.40 94.32,118.00
             94.32,118.00 89.00,132.00 89.00,132.00
             82.33,130.10 57.49,130.96 49.00,131.00
             41.88,131.03 34.75,132.35 34.06,141.00
             33.20,151.75 40.66,154.88 50.00,155.00
             50.00,155.00 90.00,155.00 90.00,155.00
             90.43,160.14 91.75,165.29 93.90,170.00
             94.86,172.10 97.14,175.00 96.45,177.28
             95.76,179.57 90.83,184.17 89.00,186.00
             89.00,186.00 70.53,205.00 70.53,205.00
             66.77,209.97 65.25,217.08 71.13,221.26
             76.46,225.05 82.58,222.09 87.00,218.53
             87.00,218.53 104.00,203.00 104.00,203.00
             106.11,200.90 111.60,194.98 114.00,193.99
             116.88,192.79 119.43,194.55 122.00,195.69
             126.48,197.67 131.16,199.25 136.00,200.00
             136.00,200.00 135.00,217.00 135.00,217.00
             135.00,217.00 135.00,234.00 135.00,234.00
             135.00,239.02 134.53,246.46 136.65,250.98
             139.94,258.02 149.23,258.70 154.47,253.47
             158.30,249.65 158.94,244.13 159.00,239.00
             159.00,239.00 159.00,210.00 159.00,210.00
             159.01,207.35 158.65,203.75 160.60,201.70
             162.33,199.87 171.30,197.50 179.00,192.00
             184.23,198.76 190.97,203.98 197.00,210.00
             200.82,213.81 206.07,219.72 211.00,221.77
             217.68,224.57 226.91,222.76 226.91,214.00
             226.91,208.38 223.62,205.88 220.16,202.00
             220.16,202.00 206.00,187.00 206.00,187.00
             204.11,185.11 198.78,180.04 197.70,178.00
             195.69,174.17 199.42,169.70 200.99,166.00
             202.15,163.25 203.95,156.44 206.30,155.02
             208.18,153.96 215.27,154.99 218.00,155.02
             218.00,155.02 241.00,155.02 241.00,155.02
             244.95,154.99 248.45,155.21 251.96,152.99
             258.41,148.91 260.13,139.61 253.89,134.43
             249.76,131.00 244.07,131.01 239.00,131.00
             239.00,131.00 213.00,131.00 213.00,131.00
             210.56,131.03 206.40,131.64 204.41,130.23
             202.49,128.87 201.28,125.16 200.40,123.00
             200.40,123.00 194.00,110.00 194.00,110.00
             200.84,106.33 207.42,98.59 213.00,93.00
             216.57,89.43 223.75,82.39 225.84,78.00
             229.65,69.99 223.91,61.84 215.00,63.23
             209.66,64.06 205.78,68.44 202.00,71.92
             202.00,71.92 180.00,92.33 180.00,92.33
             178.16,93.41 176.06,93.62 174.00,94.00
             172.65,89.11 164.92,89.16 161.31,86.16
             158.74,84.02 159.02,81.04 159.00,78.00
             159.00,78.00 159.00,57.00 159.00,57.00
             159.00,57.00 157.96,42.00 157.96,42.00
             157.61,36.34 155.31,31.06 149.00,31.00 Z
           M 136.00,213.00
           C 137.39,216.50 137.39,220.50 136.00,224.00
             136.00,224.00 136.00,213.00 136.00,213.00 Z
           M 19.00,284.00
           C 19.00,284.00 39.00,285.00 39.00,285.00
             39.00,285.00 19.00,284.00 19.00,284.00 Z
           M 40.00,284.00
           C 40.00,284.00 41.00,284.00 41.00,284.00
             41.00,284.00 40.00,285.00 40.00,285.00
             40.00,285.00 40.00,284.00 40.00,284.00 Z
           M 179.00,284.00
           C 179.00,284.00 206.00,285.00 206.00,285.00
             206.00,285.00 179.00,284.00 179.00,284.00 Z
           M 220.00,284.00
           C 220.00,284.00 221.00,284.00 221.00,284.00
             221.00,284.00 220.00,285.00 220.00,285.00
             220.00,285.00 220.00,284.00 220.00,284.00 Z
           M 231.00,284.00
           C 231.00,284.00 247.00,285.00 247.00,285.00
             247.00,285.00 231.00,284.00 231.00,284.00 Z" />
</svg>
