<?xml version="1.0" encoding="UTF-8" standalone="no"?>
<!DOCTYPE svg PUBLIC "-//W3C//DTD SVG 20010904//EN"
              "http://www.w3.org/TR/2001/REC-SVG-20010904/DTD/svg10.dtd">

<svg xmlns="http://www.w3.org/2000/svg"
     width="4in" height="3.95833in"
     viewBox="0 0 288 285">
  <path id="Selection #1"
        fill="#ffffff" stroke="black" stroke-width="1"
        d="M 14.00,0.65
           C 19.74,-0.54 32.51,0.00 39.00,0.00
             39.00,0.00 84.00,0.00 84.00,0.00
             84.00,0.00 227.00,0.00 227.00,0.00
             227.00,0.00 266.00,0.00 266.00,0.00
             271.44,0.01 276.36,0.13 280.90,3.65
             287.08,8.43 287.99,16.79 288.00,24.00
             288.00,24.00 288.00,224.00 288.00,224.00
             288.00,224.00 288.00,265.00 288.00,265.00
             287.93,270.89 286.57,277.45 281.81,281.43
             276.93,285.52 269.98,285.07 264.00,285.00
             264.00,285.00 249.00,284.00 249.00,284.00
             249.00,284.00 38.00,284.00 38.00,284.00
             23.77,284.17 6.84,289.79 2.81,270.00
             1.96,265.83 2.01,264.16 2.00,260.00
             2.00,260.00 2.00,43.00 2.00,43.00
             1.83,28.51 -3.40,7.97 14.00,0.65 Z
           M 237.00,200.00
           C 240.55,198.73 238.84,190.01 237.96,187.00
             234.47,175.07 229.60,169.86 224.88,150.00
             224.88,150.00 214.25,100.00 214.25,100.00
             207.88,80.12 194.69,62.03 178.00,49.63
             170.14,43.79 157.99,36.44 148.00,36.04
             135.61,35.54 123.72,42.03 114.00,49.15
             100.39,59.13 89.30,71.51 82.31,87.00
             74.17,105.06 70.72,135.81 65.52,156.00
             65.52,156.00 52.10,195.00 52.10,195.00
             51.42,204.86 58.18,213.17 66.00,218.30
             79.85,227.40 105.37,237.99 122.00,238.00
             117.84,213.52 85.31,214.10 85.00,188.00
             84.87,176.98 87.56,168.33 91.00,158.00
             98.02,136.93 105.02,114.47 125.00,102.06
             131.14,98.25 138.13,95.80 145.42,95.82
             158.13,95.87 168.46,103.30 176.99,112.00
             189.93,125.21 197.40,145.41 202.42,163.00
             204.42,169.99 206.82,179.78 206.99,187.00
             207.43,206.57 190.34,211.23 178.29,222.62
             171.55,228.98 172.69,230.67 169.00,237.00
             175.70,239.48 180.44,237.30 187.00,235.42
             200.31,231.61 213.54,225.07 225.00,217.33
             231.04,213.25 237.77,208.02 237.00,200.00 Z
           M 0.00,39.00
           C 1.25,42.17 1.25,43.83 0.00,47.00
             0.00,47.00 0.00,39.00 0.00,39.00 Z
           M 188.00,170.00
           C 174.91,173.53 156.86,181.74 143.00,180.68
             136.22,180.16 121.51,176.58 115.00,174.31
             115.00,174.31 103.00,170.00 103.00,170.00
             103.00,170.00 102.00,171.00 102.00,171.00
             105.15,186.61 110.25,197.78 120.59,210.00
             125.91,216.29 133.66,223.00 142.00,224.53
             148.68,225.76 154.66,222.71 160.00,218.96
             170.47,211.60 179.99,198.87 184.79,187.00
             187.20,181.05 189.42,176.44 188.00,170.00 Z
           M 149.00,181.00
           C 149.00,181.00 150.00,181.00 150.00,181.00
             150.00,181.00 149.00,182.00 149.00,182.00
             149.00,182.00 149.00,181.00 149.00,181.00 Z" />
</svg>
