<?xml version="1.0" encoding="UTF-8" standalone="no"?>
<!DOCTYPE svg PUBLIC "-//W3C//DTD SVG 20010904//EN"
              "http://www.w3.org/TR/2001/REC-SVG-20010904/DTD/svg10.dtd">

<svg xmlns="http://www.w3.org/2000/svg"
     width="4.01389in" height="3.98611in"
     viewBox="0 0 289 287">
  <path id="Selection"
        fill="#ffffff" stroke="black" stroke-width="1"
        d="M 17.00,0.09
           C 17.00,0.09 43.00,0.09 43.00,0.09
             43.00,0.09 88.00,0.09 88.00,0.09
             88.00,0.09 228.00,0.09 228.00,0.09
             228.00,0.09 264.00,0.09 264.00,0.09
             274.42,0.02 282.77,2.17 286.87,13.00
             288.68,17.78 288.99,22.95 289.00,28.00
             289.00,28.00 289.00,226.00 289.00,226.00
             289.00,226.00 288.41,266.00 288.41,266.00
             287.44,272.14 286.13,277.32 280.91,281.36
             275.57,285.50 268.48,285.99 262.00,285.96
             262.00,285.96 246.00,285.96 246.00,285.96
             246.00,285.96 234.00,285.00 234.00,285.00
             234.00,285.00 35.00,285.00 35.00,285.00
             35.00,285.00 26.00,285.82 26.00,285.82
             17.65,286.41 7.36,281.70 3.57,274.00
             1.27,269.35 1.01,264.07 0.81,259.00
             0.81,259.00 0.81,193.00 0.81,193.00
             0.81,193.00 0.81,165.00 0.81,165.00
             0.81,165.00 0.81,136.04 0.81,136.04
             0.81,136.04 0.81,110.00 0.81,110.00
             0.81,110.00 0.81,98.00 0.81,98.00
             0.81,98.00 0.81,87.00 0.81,87.00
             0.81,87.00 0.81,46.00 0.81,46.00
             0.81,46.00 0.00,32.00 0.00,32.00
             -0.06,18.34 1.39,4.28 17.00,0.09 Z
           M 237.00,40.00
           C 237.00,40.00 235.00,40.00 235.00,40.00
             235.00,40.00 232.08,57.00 232.08,57.00
             229.66,66.01 224.84,71.72 218.00,77.83
             214.73,80.75 203.60,86.45 205.16,91.02
             205.76,92.74 210.39,98.00 211.84,100.00
             215.69,105.30 217.41,109.48 218.00,116.00
             218.00,116.00 221.50,116.93 221.50,116.93
             225.65,116.51 235.02,107.36 237.71,103.99
             241.39,99.37 242.63,95.54 244.28,90.00
             250.11,70.36 246.28,57.57 237.00,40.00 Z
           M 62.00,41.00
           C 55.92,45.86 51.86,55.25 51.09,63.00
             51.09,63.00 51.09,71.00 51.09,71.00
             51.09,71.00 50.00,68.00 50.00,68.00
             50.00,70.79 48.94,75.91 52.00,77.00
             48.89,88.08 57.56,103.23 65.04,111.00
             67.32,113.36 73.02,119.40 76.70,118.27
             79.26,117.49 80.04,112.31 80.87,110.00
             84.47,99.89 90.52,95.48 93.00,88.00
             80.99,79.99 70.62,72.21 65.55,58.00
             62.82,50.36 63.67,46.88 62.00,41.00 Z
           M 163.00,81.00
           C 161.63,75.17 155.05,60.40 150.80,56.68
             149.50,55.54 148.56,55.44 147.00,55.00
             142.28,62.87 136.45,70.76 135.00,80.00
             135.00,80.00 132.00,78.00 132.00,78.00
             132.00,78.00 131.00,82.00 131.00,82.00
             131.00,82.00 132.00,75.00 132.00,75.00
             124.81,75.65 119.28,78.44 113.00,81.78
             100.53,88.40 88.96,98.42 84.09,112.00
             81.20,120.06 82.00,128.57 82.00,137.00
             82.00,137.00 82.00,177.00 82.00,177.00
             81.85,189.46 75.25,194.26 77.67,200.00
             79.34,203.96 86.81,211.80 90.00,215.00
             90.00,215.00 100.00,224.70 100.00,224.70
             106.97,230.67 125.36,242.54 134.02,245.00
             135.92,238.22 134.39,236.48 134.02,230.00
             134.02,230.00 131.09,196.00 131.09,196.00
             130.69,190.19 130.94,181.09 127.77,176.09
             124.66,171.17 117.18,168.37 112.00,163.82
             102.62,155.56 100.61,148.95 99.00,137.00
             99.00,137.00 139.00,153.00 139.00,153.00
             139.00,153.00 138.18,167.00 138.18,167.00
             138.87,176.41 141.55,188.09 151.00,192.00
             156.31,181.95 158.42,179.64 159.00,168.00
             159.00,168.00 159.00,170.00 159.00,170.00
             159.00,170.00 160.09,170.00 160.09,170.00
             160.09,170.00 160.09,154.27 160.09,154.27
             160.09,154.27 172.00,147.60 172.00,147.60
             172.00,147.60 200.00,136.00 200.00,136.00
             197.65,145.55 197.28,154.07 189.68,161.68
             184.01,167.35 174.57,169.75 169.70,177.00
             166.71,181.47 167.10,186.89 166.42,192.00
             166.42,192.00 163.96,221.00 163.96,221.00
             163.37,227.87 161.99,231.93 163.96,239.00
             160.32,240.30 162.38,245.74 168.00,243.43
             179.98,238.50 201.88,222.77 210.27,213.00
             212.61,210.28 219.45,202.96 220.36,200.00
             221.38,196.69 219.02,192.24 218.04,189.00
             216.32,183.35 216.01,179.83 216.00,174.00
             216.00,174.00 216.00,125.00 216.00,125.00
             215.97,103.99 203.23,92.28 186.00,82.43
             182.56,80.46 170.08,74.07 166.49,76.11
             165.04,76.94 163.82,79.55 163.00,81.00 Z
           M 133.00,81.00
           C 133.00,81.00 134.00,81.00 134.00,81.00
             134.00,81.00 133.00,82.00 133.00,82.00
             133.00,82.00 133.00,81.00 133.00,81.00 Z
           M 167.00,193.00
           C 167.00,193.00 168.00,193.00 168.00,193.00
             168.00,193.00 167.00,194.00 167.00,194.00
             167.00,194.00 167.00,193.00 167.00,193.00 Z
           M 125.00,286.00
           C 125.00,286.00 166.00,286.00 166.00,286.00
             166.00,286.00 186.00,287.00 186.00,287.00
             186.00,287.00 145.00,287.00 145.00,287.00
             145.00,287.00 125.00,286.00 125.00,286.00 Z
           M 195.00,286.00
           C 195.00,286.00 196.00,286.00 196.00,286.00
             196.00,286.00 195.00,287.00 195.00,287.00
             195.00,287.00 195.00,286.00 195.00,286.00 Z
           M 198.00,286.00
           C 198.00,286.00 207.00,287.00 207.00,287.00
             207.00,287.00 198.00,286.00 198.00,286.00 Z" />
</svg>
