<?xml version="1.0" encoding="UTF-8" standalone="no"?>
<!DOCTYPE svg PUBLIC "-//W3C//DTD SVG 20010904//EN"
              "http://www.w3.org/TR/2001/REC-SVG-20010904/DTD/svg10.dtd">

<svg xmlns="http://www.w3.org/2000/svg"
     width="4.01389in" height="4in"
     viewBox="0 0 289 288">
  <path id="Selection #2"
        fill="#ffffff" stroke="black" stroke-width="1"
        d="M 39.00,0.00
           C 39.00,0.00 46.00,1.00 46.00,1.00
             46.00,1.00 39.00,0.00 39.00,0.00 Z
           M 127.00,0.00
           C 127.00,0.00 152.00,0.00 152.00,0.00
             152.00,0.00 165.00,1.00 165.00,1.00
             165.00,1.00 140.00,1.00 140.00,1.00
             140.00,1.00 127.00,0.00 127.00,0.00 Z
           M 16.00,1.47
           C 26.33,0.02 36.70,1.98 47.00,2.00
             47.00,2.00 87.00,2.00 87.00,2.00
             87.00,2.00 164.00,2.00 164.00,2.00
             164.00,2.00 187.00,1.00 187.00,1.00
             187.00,1.00 229.00,1.00 229.00,1.00
             229.00,1.00 252.00,1.00 252.00,1.00
             265.96,1.00 282.04,-0.61 287.53,16.00
             288.98,20.37 288.99,23.51 289.00,28.00
             289.00,28.00 289.00,226.00 289.00,226.00
             289.00,226.00 289.00,263.00 289.00,263.00
             288.97,268.25 288.56,273.55 285.35,277.96
             280.35,284.83 272.85,285.99 265.00,286.00
             265.00,286.00 197.00,286.00 197.00,286.00
             197.00,286.00 175.00,287.00 175.00,287.00
             175.00,287.00 110.00,287.00 110.00,287.00
             110.00,287.00 93.00,286.00 93.00,286.00
             93.00,286.00 24.00,286.00 24.00,286.00
             6.14,285.92 0.03,276.88 0.00,260.00
             0.00,260.00 0.00,64.00 0.00,64.00
             0.00,64.00 0.00,50.00 0.00,50.00
             0.00,50.00 0.00,28.00 0.00,28.00
             0.02,15.54 2.29,4.82 16.00,1.47 Z
           M 153.00,82.00
           C 152.00,79.22 148.63,80.01 146.00,80.00
             141.24,79.99 135.88,79.13 132.43,83.15
             128.77,87.40 130.00,99.33 130.00,105.00
             130.00,105.00 122.00,106.00 122.00,106.00
             122.00,106.00 127.00,107.01 127.00,107.01
             123.21,106.69 114.55,104.91 111.43,107.01
             107.08,109.96 106.70,125.96 110.51,129.40
             113.52,132.12 129.35,131.00 134.00,131.00
             134.00,143.18 132.99,167.22 135.93,178.00
             136.93,181.69 140.72,191.82 145.91,189.83
             149.91,188.30 152.19,180.83 153.10,177.00
             155.09,168.65 151.90,168.65 154.00,161.00
             154.00,161.00 155.00,169.00 155.00,169.00
             155.00,169.00 154.00,131.06 154.00,131.06
             154.00,131.06 172.00,131.06 172.00,131.06
             181.64,131.45 180.09,124.37 180.00,117.00
             179.96,114.24 179.95,110.59 178.15,108.31
             175.89,105.47 162.03,105.09 158.00,105.00
             158.00,98.99 160.14,83.77 153.00,82.00 Z
           M 125.00,179.00
           C 126.71,172.98 126.01,162.58 126.00,156.00
             125.98,144.92 120.94,142.46 112.00,136.70
             98.87,128.24 86.19,123.43 71.00,120.21
             64.72,118.88 58.29,117.22 52.00,119.00
             53.26,124.17 53.47,127.84 52.00,133.00
             52.00,133.00 51.04,120.00 51.04,120.00
             51.04,120.00 51.04,134.00 51.04,134.00
             51.04,134.00 52.00,146.00 52.00,146.00
             52.00,146.00 52.00,189.00 52.00,189.00
             51.93,194.29 49.59,203.26 52.93,207.69
             54.71,210.03 57.35,209.92 60.00,210.28
             60.00,210.28 78.00,212.59 78.00,212.59
             89.75,214.48 106.64,218.65 117.00,224.31
             124.50,228.41 135.24,238.33 142.00,240.00
             142.00,240.00 142.00,235.00 142.00,235.00
             142.00,235.00 143.00,238.00 143.00,238.00
             143.00,216.27 144.72,210.48 132.81,191.00
             131.01,188.05 127.94,179.95 125.00,179.00 Z
           M 148.00,223.00
           C 147.97,226.42 145.82,236.25 149.31,237.75
             151.54,238.72 154.26,236.58 156.00,235.41
             156.00,235.41 171.00,225.07 171.00,225.07
             181.00,218.95 202.15,214.08 214.00,212.08
             217.77,211.45 232.66,210.34 234.69,208.98
             237.45,207.12 236.99,202.93 237.00,200.00
             237.00,200.00 237.00,161.00 237.00,161.00
             237.00,161.00 237.00,125.00 237.00,125.00
             236.89,119.37 236.07,117.70 230.00,118.17
             212.80,119.51 191.13,127.28 177.00,137.02
             168.09,143.17 163.02,144.75 163.00,156.00
             163.00,156.00 163.00,170.00 163.00,170.00
             162.96,193.13 149.91,191.66 146.98,218.00
             146.43,222.67 145.20,226.46 146.98,231.00
             146.98,231.00 148.00,223.00 148.00,223.00 Z
           M 126.00,235.00
           C 105.44,226.16 98.12,223.71 76.00,220.08
             76.00,220.08 60.00,218.04 60.00,218.04
             56.42,217.88 52.26,218.33 49.14,216.15
             44.67,213.00 45.96,206.74 46.00,202.00
             46.00,202.00 46.00,138.00 46.00,138.00
             46.00,135.26 46.13,131.57 45.11,129.02
             43.18,124.17 38.15,122.71 34.85,127.23
             32.76,130.10 33.01,134.60 33.00,138.00
             33.00,138.00 33.00,152.00 33.00,152.00
             33.00,152.00 34.00,167.00 34.00,167.00
             34.00,167.00 34.00,181.00 34.00,181.00
             34.00,181.00 33.00,197.00 33.00,197.00
             33.00,197.00 33.00,223.00 33.00,223.00
             33.02,234.27 35.03,234.98 46.00,235.00
             46.00,235.00 99.00,235.00 99.00,235.00
             104.72,235.01 108.39,235.55 114.00,236.42
             116.22,236.77 120.87,237.81 122.89,237.24
             124.63,236.74 124.85,236.10 126.00,235.00 Z
           M 253.00,132.00
           C 254.32,123.91 248.05,122.84 244.43,126.43
             241.64,129.19 242.01,133.40 242.00,137.00
             242.00,137.00 242.00,206.00 242.00,206.00
             242.00,208.36 242.20,211.79 240.98,213.86
             238.14,218.67 227.19,217.91 222.00,218.75
             206.93,221.19 193.42,223.34 179.00,228.81
             173.48,230.90 167.00,231.90 165.00,238.00
             165.00,238.00 191.00,235.00 191.00,235.00
             191.00,235.00 243.00,235.00 243.00,235.00
             253.56,234.98 254.98,233.40 255.00,223.00
             255.00,223.00 255.00,159.00 255.00,159.00
             255.00,152.74 255.91,134.83 254.00,130.00
             254.00,130.00 253.00,132.00 253.00,132.00 Z
           M 34.00,151.00
           C 34.00,151.00 34.00,156.00 34.00,156.00
             34.00,156.00 34.00,151.00 34.00,151.00 Z
           M 89.00,287.00
           C 89.00,287.00 96.00,288.00 96.00,288.00
             96.00,288.00 89.00,287.00 89.00,287.00 Z" />
</svg>
