<?xml version="1.0" encoding="UTF-8" standalone="no"?>
<!DOCTYPE svg PUBLIC "-//W3C//DTD SVG 20010904//EN"
              "http://www.w3.org/TR/2001/REC-SVG-20010904/DTD/svg10.dtd">

<svg xmlns="http://www.w3.org/2000/svg"
     width="4in" height="3.91667in"
     viewBox="0 0 288 282">
  <path id="Selection #6"
        fill="#ffffff" stroke="black" stroke-width="1"
        d="M 17.00,0.09
           C 17.00,0.09 43.00,0.09 43.00,0.09
             43.00,0.09 88.00,0.09 88.00,0.09
             88.00,0.09 226.00,0.09 226.00,0.09
             226.00,0.09 265.00,0.09 265.00,0.09
             269.89,0.06 275.90,0.71 279.96,3.65
             287.03,8.77 287.99,16.97 288.00,25.00
             288.00,25.00 288.00,222.00 288.00,222.00
             288.00,222.00 288.00,259.00 288.00,259.00
             287.96,267.15 285.78,275.55 278.00,279.72
             273.80,281.97 269.60,281.99 265.00,282.00
             265.00,282.00 61.00,282.00 61.00,282.00
             61.00,282.00 29.00,282.00 29.00,282.00
             23.07,282.00 16.46,282.67 11.00,280.08
             1.81,275.73 0.01,268.23 0.00,259.00
             0.00,259.00 0.00,62.00 0.00,62.00
             0.00,62.00 0.00,31.00 0.00,31.00
             0.00,16.21 -1.26,3.98 17.00,0.09 Z
           M 213.00,92.00
           C 213.00,82.87 212.21,75.19 207.65,67.00
             200.91,54.89 183.85,45.63 171.00,41.35
             159.90,37.62 150.94,35.01 140.00,41.35
             130.11,47.11 125.30,60.06 120.77,70.00
             120.77,70.00 92.05,143.00 92.05,143.00
             92.05,143.00 84.65,167.00 84.65,167.00
             84.06,169.52 82.78,174.50 83.64,176.90
             84.59,179.57 87.67,181.22 90.00,182.57
             96.12,186.13 105.03,189.68 112.00,190.92
             135.01,195.00 162.25,196.11 185.00,190.12
             190.22,188.74 205.22,183.80 208.10,179.47
             209.51,177.13 208.68,173.55 208.10,171.00
             206.80,163.70 205.01,157.99 202.67,151.00
             198.01,137.07 183.17,97.80 176.69,86.00
             176.69,86.00 169.00,74.00 169.00,74.00
             179.07,74.22 193.88,78.76 202.00,84.63
             202.00,84.63 211.00,93.00 211.00,93.00
             211.00,93.00 213.00,92.00 213.00,92.00 Z
           M 77.00,170.00
           C 77.00,170.00 72.73,168.61 72.73,168.61
             68.98,168.51 59.55,172.98 56.00,174.75
             45.31,180.10 32.45,188.12 39.05,202.00
             40.09,204.19 41.55,206.17 43.18,207.96
             48.94,214.25 57.46,218.48 65.00,222.25
             81.39,230.42 104.72,236.71 123.00,238.15
             123.00,238.15 130.00,238.15 130.00,238.15
             130.00,238.15 142.00,239.00 142.00,239.00
             166.75,239.04 188.33,237.22 212.00,229.33
             218.85,227.05 226.86,224.69 233.00,220.93
             241.25,215.88 254.98,206.46 255.78,196.00
             256.19,190.52 253.11,186.01 248.96,182.76
             242.33,177.57 225.31,169.30 217.00,168.00
             215.42,174.50 216.96,180.59 213.49,184.79
             210.57,188.32 198.63,193.43 194.00,195.00
             176.50,200.92 153.44,202.75 135.00,202.00
             135.00,202.00 137.00,202.00 137.00,202.00
             137.00,202.00 137.00,201.00 137.00,201.00
             121.63,201.00 106.11,198.16 92.00,192.00
             80.64,187.03 74.68,183.14 77.00,170.00 Z" />
</svg>
