<?xml version="1.0" encoding="UTF-8" standalone="no"?>
<!DOCTYPE svg PUBLIC "-//W3C//DTD SVG 20010904//EN"
              "http://www.w3.org/TR/2001/REC-SVG-20010904/DTD/svg10.dtd">

<svg xmlns="http://www.w3.org/2000/svg"
     width="4in" height="3.91667in"
     viewBox="0 0 288 282">
  <path id="Selection #3"
        fill="#ffffff" stroke="black" stroke-width="1"
        d="M 14.00,0.09
           C 14.00,0.09 40.00,0.09 40.00,0.09
             40.00,0.09 85.00,0.09 85.00,0.09
             85.00,0.09 226.00,0.09 226.00,0.09
             226.00,0.09 266.00,0.09 266.00,0.09
             273.07,0.03 278.73,1.23 283.44,7.09
             287.55,12.20 287.99,18.75 288.00,25.00
             288.00,25.00 288.00,218.00 288.00,218.00
             288.00,218.00 288.00,258.00 288.00,258.00
             287.91,265.44 286.37,271.76 279.98,276.35
             274.38,280.39 261.93,280.99 255.00,281.00
             255.00,281.00 61.00,281.00 61.00,281.00
             61.00,281.00 23.00,281.00 23.00,281.00
             18.17,280.99 14.23,281.14 10.00,278.30
             1.22,272.41 0.02,261.70 0.00,252.00
             0.00,252.00 0.00,61.00 0.00,61.00
             0.00,61.00 0.00,21.00 0.00,21.00
             0.13,10.56 3.05,3.18 14.00,0.09 Z
           M 142.00,47.30
           C 126.34,50.26 112.98,59.60 99.00,66.76
             99.00,66.76 66.00,83.69 66.00,83.69
             58.92,86.94 51.45,89.10 46.97,96.00
             42.14,103.45 42.90,112.53 43.00,121.00
             43.08,127.73 44.93,135.67 49.39,140.91
             53.18,145.36 60.63,148.70 66.00,151.00
             66.00,151.00 94.00,162.42 94.00,162.42
             94.00,162.42 134.00,179.42 134.00,179.42
             144.77,184.10 150.62,188.36 163.00,186.82
             169.20,186.04 174.56,182.07 180.00,179.26
             180.00,179.26 212.00,163.25 212.00,163.25
             212.00,163.25 233.00,153.23 233.00,153.23
             236.01,151.86 241.50,150.01 243.57,147.73
             248.27,142.52 244.81,134.47 232.00,137.76
             225.20,139.50 218.49,144.15 212.00,147.22
             212.00,147.22 179.00,161.86 179.00,161.86
             173.61,164.26 163.69,170.14 158.00,169.39
             153.71,168.83 141.75,163.48 137.00,161.60
             137.00,161.60 102.00,148.68 102.00,148.68
             102.00,148.68 75.00,138.14 75.00,138.14
             70.92,136.35 65.27,134.00 62.22,130.81
             57.38,125.76 56.10,115.50 58.34,109.00
             60.35,103.21 64.53,101.53 70.17,103.23
             70.17,103.23 104.00,117.28 104.00,117.28
             104.00,117.28 135.00,129.00 135.00,129.00
             139.73,130.61 147.04,133.10 152.00,132.79
             160.33,132.26 168.81,126.57 176.00,122.78
             176.00,122.78 213.00,104.75 213.00,104.75
             213.00,104.75 241.00,90.24 241.00,90.24
             244.43,88.45 248.96,85.79 247.36,81.10
             246.02,77.18 236.78,74.13 233.00,72.60
             233.00,72.60 190.00,58.00 190.00,58.00
             174.37,52.79 158.78,45.63 142.00,47.30 Z
           M 229.00,107.00
           C 229.00,107.00 228.00,107.00 228.00,107.00
             228.00,107.00 229.00,108.00 229.00,108.00
             229.00,108.00 229.00,107.00 229.00,107.00 Z
           M 164.00,141.00
           C 159.93,140.61 153.52,142.72 151.17,146.39
             148.34,150.84 150.02,158.94 155.04,161.43
             161.70,164.73 171.03,158.69 177.00,155.76
             177.00,155.76 225.00,131.38 225.00,131.38
             230.63,127.83 237.04,120.28 234.26,113.02
             231.56,105.97 225.82,108.55 221.00,111.14
             221.00,111.14 194.00,124.69 194.00,124.69
             194.00,124.69 178.00,131.76 178.00,131.76
             174.03,133.71 165.14,136.67 164.00,141.00 Z
           M 232.00,166.00
           C 222.61,167.10 213.34,173.47 205.00,177.97
             205.00,177.97 181.00,188.77 181.00,188.77
             177.17,190.51 165.76,195.30 162.00,195.38
             157.26,195.47 141.35,188.07 136.00,185.86
             136.00,185.86 80.00,162.58 80.00,162.58
             80.00,162.58 56.00,152.37 56.00,152.37
             48.46,151.51 45.52,158.97 44.21,165.00
             41.89,175.71 42.12,193.94 52.09,200.87
             56.31,203.80 71.36,209.14 77.00,211.40
             77.00,211.40 126.00,230.68 126.00,230.68
             132.49,233.08 148.14,240.47 154.00,239.78
             158.78,239.21 166.48,234.92 171.00,232.78
             171.00,232.78 202.00,218.31 202.00,218.31
             202.00,218.31 235.00,202.86 235.00,202.86
             239.39,200.90 245.72,198.99 245.56,193.02
             245.44,188.13 239.97,186.75 236.00,187.59
             236.00,187.59 211.00,199.00 211.00,199.00
             211.00,199.00 173.00,216.31 173.00,216.31
             169.63,217.85 156.69,224.20 154.00,224.43
             150.71,224.70 139.78,219.51 136.00,218.00
             136.00,218.00 95.00,202.60 95.00,202.60
             95.00,202.60 72.00,193.58 72.00,193.58
             69.41,192.49 63.26,190.09 61.43,188.35
             58.51,185.59 56.71,175.95 58.85,172.48
             60.80,169.33 66.60,173.09 69.00,174.14
             69.00,174.14 100.00,186.68 100.00,186.68
             100.00,186.68 144.00,206.26 144.00,206.26
             146.11,207.38 147.89,208.33 149.44,210.21
             151.35,212.52 151.65,215.98 155.11,216.58
             158.93,217.25 172.88,210.20 177.00,208.31
             177.00,208.31 210.00,193.42 210.00,193.42
             210.00,193.42 228.79,184.35 228.79,184.35
             234.38,179.72 234.86,172.18 232.00,166.00 Z
           M 231.00,165.00
           C 231.00,165.00 230.00,165.00 230.00,165.00
             230.00,165.00 231.00,166.00 231.00,166.00
             231.00,166.00 231.00,165.00 231.00,165.00 Z" />
</svg>
