<?xml version="1.0" encoding="UTF-8" standalone="no"?>
<!DOCTYPE svg PUBLIC "-//W3C//DTD SVG 20010904//EN"
              "http://www.w3.org/TR/2001/REC-SVG-20010904/DTD/svg10.dtd">

<svg xmlns="http://www.w3.org/2000/svg"
     width="4in" height="3.91667in"
     viewBox="0 0 288 282">
  <path id="Selection #5"
        fill="#ffffff" stroke="black" stroke-width="1"
        d="M 15.00,0.53
           C 15.00,0.53 40.00,0.00 40.00,0.00
             40.00,0.00 85.00,0.00 85.00,0.00
             85.00,0.00 226.00,0.00 226.00,0.00
             226.00,0.00 267.00,0.00 267.00,0.00
             272.43,0.01 277.36,0.13 281.90,3.65
             287.55,8.03 287.99,14.47 287.88,21.00
             287.88,21.00 287.88,221.00 287.88,221.00
             287.88,221.00 287.88,234.00 287.88,234.00
             287.88,234.00 287.88,267.00 287.88,267.00
             286.56,272.15 283.85,277.37 279.00,279.83
             276.27,281.21 272.98,281.00 270.00,281.00
             270.00,281.00 210.00,281.00 210.00,281.00
             210.00,281.00 198.00,281.90 198.00,281.90
             198.00,281.90 190.00,281.34 190.00,281.34
             190.00,281.34 173.00,282.00 173.00,282.00
             173.00,282.00 142.00,281.00 142.00,281.00
             142.00,281.00 101.91,281.80 101.91,281.80
             101.91,281.80 94.18,281.80 94.18,281.80
             94.18,281.80 82.00,281.80 82.00,281.80
             82.00,281.80 58.59,281.80 58.59,281.80
             58.59,281.80 46.00,281.15 46.00,281.15
             46.00,281.15 24.00,281.15 24.00,281.15
             17.76,280.78 12.32,281.28 7.39,276.47
             2.54,271.75 2.01,264.34 2.00,258.00
             2.00,258.00 2.00,199.00 2.00,199.00
             2.00,199.00 1.22,186.88 1.22,186.88
             1.22,186.88 1.22,162.00 1.22,162.00
             1.22,162.00 1.22,63.00 1.22,63.00
             1.22,63.00 1.22,20.00 1.22,20.00
             2.93,9.88 3.86,4.01 15.00,0.53 Z
           M 132.00,64.00
           C 138.15,63.19 143.76,62.57 150.00,63.07
             152.43,63.40 157.36,64.68 159.36,63.07
             162.77,60.08 157.26,53.28 154.96,51.39
             145.16,43.36 129.04,50.44 132.00,64.00 Z
           M 81.09,129.00
           C 81.09,129.00 132.00,141.80 132.00,141.80
             149.48,145.35 147.94,143.53 165.00,140.00
             165.00,140.00 198.00,132.42 198.00,132.42
             201.18,131.55 207.20,130.67 208.96,127.72
             210.83,124.60 208.06,115.44 206.97,112.00
             202.10,96.68 191.22,83.33 177.00,75.78
             168.65,71.35 153.47,66.55 144.00,67.09
             122.37,68.33 100.61,80.35 89.32,99.00
             85.41,105.47 81.83,114.41 81.09,121.99
             81.09,121.99 81.09,129.00 81.09,129.00 Z
           M 79.00,141.00
           C 75.88,145.82 77.01,151.58 77.72,157.00
             79.78,172.85 80.54,172.56 85.69,187.00
             86.84,190.66 87.63,194.34 85.69,198.00
             84.24,201.24 79.94,204.08 81.13,207.99
             82.00,210.84 87.67,215.92 90.04,217.91
             99.74,226.05 111.74,231.29 124.00,234.11
             127.23,234.86 136.75,236.84 139.57,235.43
             143.51,233.45 141.22,221.89 140.83,218.00
             140.83,218.00 136.93,176.00 136.93,176.00
             136.40,170.36 136.43,162.88 130.94,159.90
             130.94,159.90 79.00,141.00 79.00,141.00 Z
           M 213.00,142.00
           C 205.01,142.39 179.85,152.05 171.00,155.32
             166.74,156.90 158.60,159.37 156.14,163.21
             153.68,167.04 153.31,179.06 152.72,184.00
             152.72,184.00 148.00,236.00 148.00,236.00
             148.00,236.00 150.00,237.00 150.00,237.00
             150.00,237.00 161.00,235.54 161.00,235.54
             173.46,233.31 186.78,227.98 197.00,220.51
             199.92,218.38 206.72,212.97 208.34,210.00
             211.73,203.83 202.24,202.06 203.20,192.00
             203.20,192.00 209.57,173.00 209.57,173.00
             212.53,162.53 213.00,152.77 213.00,142.00 Z
           M 0.00,237.00
           C 0.00,237.00 1.00,237.00 1.00,237.00
             1.00,237.00 0.00,238.00 0.00,238.00
             0.00,238.00 0.00,237.00 0.00,237.00 Z
           M 0.00,239.00
           C 1.60,243.04 1.60,256.96 0.00,261.00
             0.00,261.00 0.00,239.00 0.00,239.00 Z" />
</svg>
