<?xml version="1.0" encoding="UTF-8" standalone="no"?>
<!DOCTYPE svg PUBLIC "-//W3C//DTD SVG 20010904//EN"
              "http://www.w3.org/TR/2001/REC-SVG-20010904/DTD/svg10.dtd">

<svg xmlns="http://www.w3.org/2000/svg"
     width="4in" height="3.90278in"
     viewBox="0 0 288 281">
  <path id="Selection #4"
        fill="#ffffff" stroke="black" stroke-width="1"
        d="M 19.00,0.11
           C 19.00,0.11 89.00,0.11 89.00,0.11
             89.00,0.11 227.00,0.11 227.00,0.11
             227.00,0.11 268.00,0.11 268.00,0.11
             273.46,0.07 279.66,1.21 283.61,5.34
             287.80,9.72 287.99,16.31 288.00,22.00
             288.00,22.00 288.00,220.00 288.00,220.00
             288.00,220.00 288.00,259.00 288.00,259.00
             287.93,264.28 287.18,269.73 283.61,273.90
             278.41,279.96 269.48,280.99 262.00,281.00
             262.00,281.00 68.00,281.00 68.00,281.00
             68.00,281.00 24.00,280.28 24.00,280.28
             15.52,279.27 9.35,279.62 4.36,271.00
             -0.74,262.15 1.99,255.26 2.00,246.00
             2.00,246.00 2.00,193.00 2.00,193.00
             2.00,193.00 1.00,173.00 1.00,173.00
             1.00,173.00 1.00,60.00 1.00,60.00
             1.00,60.00 1.00,37.00 1.00,37.00
             1.00,21.72 0.06,4.16 19.00,0.11 Z
           M 213.00,67.00
           C 212.65,77.35 202.81,84.19 196.00,91.00
             196.00,91.00 149.00,139.00 149.00,139.00
             149.00,139.00 132.58,156.00 132.58,156.00
             130.83,158.06 127.29,161.37 127.87,164.28
             128.63,168.08 137.48,178.61 141.82,176.26
             143.40,175.40 147.43,169.81 149.09,168.00
             149.09,168.00 167.00,149.00 167.00,149.00
             167.00,149.00 204.00,111.00 204.00,111.00
             213.47,101.53 231.89,83.47 237.63,72.00
             240.84,65.57 243.26,53.25 243.83,46.00
             244.53,36.96 238.41,38.95 232.00,39.72
             220.32,41.10 215.99,40.52 205.00,46.87
             195.20,52.54 184.25,64.75 176.00,73.00
             176.00,73.00 158.00,92.00 158.00,92.00
             158.00,92.00 131.32,118.91 131.32,118.91
             131.32,118.91 115.29,136.00 115.29,136.00
             113.69,137.82 110.23,141.68 109.82,144.00
             108.98,148.80 116.94,154.80 120.00,158.00
             125.24,155.50 136.13,142.87 141.00,138.00
             141.00,138.00 189.00,89.00 189.00,89.00
             189.00,89.00 209.00,68.59 209.00,68.59
             210.63,67.54 211.26,67.51 213.00,67.00 Z
           M 79.00,129.41
           C 71.13,131.86 65.86,136.26 67.82,145.00
             68.33,147.26 68.88,149.00 70.43,150.79
             73.57,154.42 77.55,154.38 82.83,159.30
             82.83,159.30 94.68,172.00 94.68,172.00
             97.55,175.42 98.49,177.45 102.04,180.91
             102.04,180.91 121.00,196.51 121.00,196.51
             121.00,196.51 128.41,205.00 128.41,205.00
             129.99,207.47 132.94,220.71 142.00,219.48
             147.06,218.79 158.23,210.68 153.82,202.01
             152.42,199.25 141.38,190.40 138.00,187.00
             138.00,187.00 121.96,170.04 121.96,170.04
             121.96,170.04 96.03,146.75 96.03,146.75
             94.63,145.50 93.21,144.32 92.40,142.57
             91.66,140.97 91.38,128.56 79.00,129.41 Z
           M 127.00,163.00
           C 127.00,163.00 126.00,163.00 126.00,163.00
             126.00,163.00 127.00,164.00 127.00,164.00
             127.00,164.00 127.00,163.00 127.00,163.00 Z
           M 89.00,180.86
           C 83.19,182.26 79.20,187.88 75.02,191.91
             73.71,193.17 70.97,195.44 70.49,197.17
             69.95,199.09 70.98,200.50 72.02,202.00
             74.00,204.86 81.63,214.17 85.09,214.26
             88.39,214.34 92.77,209.22 95.00,207.00
             97.01,204.99 103.04,199.47 103.66,197.00
             104.28,194.56 102.51,192.75 101.11,191.00
             97.76,186.82 94.36,182.15 89.00,180.86 Z
           M 0.00,190.00
           C 0.00,190.00 1.00,202.00 1.00,202.00
             1.00,202.00 0.00,214.00 0.00,214.00
             0.00,214.00 0.00,190.00 0.00,190.00 Z
           M 66.00,237.00
           C 72.52,235.67 82.66,232.79 83.76,225.00
             83.98,223.42 83.81,221.72 82.98,220.32
             81.72,218.21 76.28,214.82 74.00,212.82
             69.93,209.24 64.74,201.11 59.00,202.45
             56.33,203.07 54.00,205.05 52.21,207.04
             42.11,218.29 54.39,237.96 67.00,235.00
             67.00,235.00 66.00,237.00 66.00,237.00 Z" />
</svg>
